<svg xmlns="http://www.w3.org/2000/svg" width="17.429" height="15.285" viewBox="0 0 17.429 15.285">
  <g id="bubble-chat_1_" data-name="bubble-chat (1)" transform="translate(-106 -252.737)">
    <path id="Path_3958" data-name="Path 3958" d="M106,258.452c.059-.345.1-.695.186-1.031a5.964,5.964,0,0,1,2.788-3.66,7.028,7.028,0,0,1,8.046.518c.173.136.322.3.495.44a.62.62,0,0,0,.263.127,6.388,6.388,0,0,1,5.058,3.6,5.531,5.531,0,0,1-.409,5.653.351.351,0,0,0-.05.341q.47,1.437.917,2.874a.5.5,0,0,1-.345.7.746.746,0,0,1-.418-.073q-1.4-.695-2.783-1.412a.4.4,0,0,0-.35-.014,6.962,6.962,0,0,1-7.011-1.035,2.308,2.308,0,0,1-.368-.327.874.874,0,0,0-.536-.272c-.5-.118-1-.263-1.5-.413a.349.349,0,0,0-.286.014c-.935.481-1.871.958-2.815,1.426a.742.742,0,0,1-.4.077.5.5,0,0,1-.363-.695q.456-1.458.931-2.906a.3.3,0,0,0-.041-.3,5.643,5.643,0,0,1-.967-2.647.7.7,0,0,0-.032-.132C106,259.019,106,258.733,106,258.452Zm15.956,8.06c-.023-.077-.032-.123-.045-.173-.2-.627-.386-1.253-.6-1.875a.731.731,0,0,1,.123-.74,4.681,4.681,0,0,0-.045-5.712,5.539,5.539,0,0,0-4.132-2.184,5.668,5.668,0,0,0-4.613,1.639,4.6,4.6,0,0,0-1.4,4.2,4.849,4.849,0,0,0,2.5,3.5,5.915,5.915,0,0,0,5.508.3.726.726,0,0,1,.695.018c.454.245.917.472,1.376.7C121.52,266.294,121.725,266.394,121.956,266.512ZM110.831,263.7c.009-.014.018-.023.027-.036-.027-.05-.05-.1-.077-.15a5.552,5.552,0,0,1,.023-5.254,6.391,6.391,0,0,1,4.582-3.342c.2-.045.4-.068.64-.109l-.236-.159a5.853,5.853,0,0,0-2.634-.863,5.782,5.782,0,0,0-4.291,1.3,4.762,4.762,0,0,0-1.844,3.91,4.564,4.564,0,0,0,.967,2.72.665.665,0,0,1,.114.663c-.209.622-.4,1.249-.6,1.871-.018.064-.032.127-.054.213.1-.045.163-.082.236-.114.608-.309,1.221-.618,1.83-.931a.622.622,0,0,1,.586-.014C110.336,263.515,110.586,263.606,110.831,263.7Z" transform="translate(0 0)" fill="#31baff"/>
    <path id="Path_3959" data-name="Path 3959" d="M286.916,422.222a.511.511,0,1,1,.5-.513A.517.517,0,0,1,286.916,422.222Z" transform="translate(-172.207 -160.814)" fill="#31baff"/>
    <path id="Path_3960" data-name="Path 3960" d="M377.316,421.713a.509.509,0,1,1-1.017-.009.517.517,0,0,1,.513-.5A.523.523,0,0,1,377.316,421.713Z" transform="translate(-258.025 -160.814)" fill="#31baff"/>
    <path id="Path_3961" data-name="Path 3961" d="M332.312,421.712a.517.517,0,0,1-.509.509.511.511,0,1,1,.009-1.022A.519.519,0,0,1,332.312,421.712Z" transform="translate(-215.064 -160.812)" fill="#31baff"/>
  </g>
</svg>
