<svg xmlns="http://www.w3.org/2000/svg" width="18.725" height="18.725" viewBox="0 0 18.725 18.725">
  <path id="home" d="M39.834-45.48v-.259c0-1.278,0-2.559,0-3.837a2.142,2.142,0,0,0-1.706-2.147,1.5,1.5,0,0,0-.35-.043c-.7,0-1.4-.035-2.1,0a2.119,2.119,0,0,0-2.048,2.19c-.008,1.278,0,2.56,0,3.837v.24c-.075,0-.134.012-.189.012H31.074a.983.983,0,0,1-1.042-1.046v-6.4c0-.519-.216-.735-.739-.735-.248,0-.5,0-.743,0a.636.636,0,0,1-.613-.409.631.631,0,0,1,.134-.723c.322-.334.653-.657.983-.987q3.544-3.533,7.089-7.081a.711.711,0,0,1,1.187,0l7.918,7.918c.059.059.122.118.177.185a.64.64,0,0,1,.09.716.637.637,0,0,1-.59.385c-.256,0-.507,0-.763,0-.511,0-.731.216-.731.723,0,2.1-.02,4.191.008,6.283a1.08,1.08,0,0,1-1.2,1.183c-.723-.035-1.447-.008-2.174-.008Z" transform="translate(-27.368 63.695)" fill="none" stroke="#31baff" stroke-width="1"/>
</svg>
