<svg xmlns="http://www.w3.org/2000/svg" width="17.651" height="17.646" viewBox="0 0 17.651 17.646">
  <g id="Group_724" data-name="Group 724" transform="translate(-252.349 -768.566)">
    <path id="Path_3331" data-name="Path 3331" d="M175.464,232.016a.848.848,0,0,1-.583-.94c.018-.418.006-.835.006-1.259a3.661,3.661,0,0,0-3.667-3.685q-2.211-.028-4.422,0a3.648,3.648,0,0,0-3.611,3.1,8.205,8.205,0,0,0-.049,1.167c-.006.233-.012.473,0,.706a.805.805,0,0,1-.59.909h-.307a.838.838,0,0,1-.577-.94,19.293,19.293,0,0,1,.074-1.978,5,5,0,0,1,3.132-4.047,4.871,4.871,0,0,1,1.959-.387c1.456,0,2.917-.006,4.373,0a5.125,5.125,0,0,1,5.042,4.035c.055.227.08.461.123.688v2.033a.857.857,0,0,1-.583.583A1.893,1.893,0,0,1,175.464,232.016Z" transform="translate(93.634 554.195)" fill="#31baff"/>
    <path id="Path_3332" data-name="Path 3332" d="M218.42,61.6a4.41,4.41,0,1,1-4.379-4.4A4.421,4.421,0,0,1,218.42,61.6ZM214,64.551a2.939,2.939,0,1,0-2.936-2.924A2.941,2.941,0,0,0,214,64.551Z" transform="translate(48.639 711.367)" fill="#31baff"/>
    <path id="Path_3333" data-name="Path 3333" d="M117.384,144.772v1.413a.745.745,0,0,1-.221.577.735.735,0,0,1-1.253-.491c-.012-.43-.006-.86-.006-1.29v-.2h-1.437a.737.737,0,1,1-.018-1.474c.338-.006.676,0,1.013,0h.436v-1.431a.736.736,0,0,1,.731-.774.747.747,0,0,1,.743.768c.006.233,0,.473,0,.706v.725c.068.006.129.006.19.006.418,0,.835-.006,1.259,0a.734.734,0,0,1,.725.528.7.7,0,0,1-.3.811,1.075,1.075,0,0,1-.454.129C118.336,144.784,117.875,144.772,117.384,144.772Z" transform="translate(138.65 632.62)" fill="#31baff"/>
  </g>
</svg>
