<svg xmlns="http://www.w3.org/2000/svg" width="17.987" height="18.002" viewBox="0 0 17.987 18.002">
  <path id="Path_3397" data-name="Path 3397" d="M110.478,24.831H103.3a1.828,1.828,0,0,1,1.461,2.107A1.8,1.8,0,0,1,101.2,26.8a1.85,1.85,0,0,1,1.461-1.982c-.3,0-.6.005-.9,0a1.791,1.791,0,0,1-1.717-1.361,1.061,1.061,0,0,1-.05-.35,10.479,10.479,0,0,0-.435-3.153q-.833-3.754-1.672-7.5a1.779,1.779,0,0,0-.175-.47.607.607,0,0,0-.626-.355,6.359,6.359,0,0,1-.691.005.6.6,0,1,1,.005-1.2,5.62,5.62,0,0,1,1.086.025,1.922,1.922,0,0,1,1.526,1.527c.17.606.28,1.226.42,1.842.015.065.035.13.05.205H113.1a.66.66,0,0,1,.576.245.612.612,0,0,1,.09.536c-.475,1.892-.956,3.784-1.416,5.681a2.434,2.434,0,0,1-.951,1.537,2.173,2.173,0,0,1-1.281.4H101.2a6.5,6.5,0,0,0,.005.7.58.58,0,0,0,.556.5c.07.005.135,0,.205,0h11.091a1.27,1.27,0,0,1,.24.01.6.6,0,0,1-.115,1.186c-.626.005-1.251,0-1.872,0a1.514,1.514,0,0,0-.21.01,1.854,1.854,0,0,1,1.166.781,1.756,1.756,0,0,1,.275,1.356,1.8,1.8,0,0,1-3.528-.015A1.841,1.841,0,0,1,110.478,24.831Zm1.932-9.589H99.753c.01.06.015.11.025.16.415,1.877.836,3.749,1.246,5.626.035.165.1.205.255.205q4.392-.008,8.789-.005a1.019,1.019,0,0,0,1.056-.821q.48-1.922.961-3.849C112.195,16.122,112.3,15.686,112.41,15.241Zm-9.424,11.982a.6.6,0,1,0-.6-.6A.607.607,0,0,0,102.986,27.223Zm8.4-.6a.6.6,0,1,0-.6.6A.6.6,0,0,0,111.384,26.622Z" transform="translate(-95.799 -10.422)" fill="#31baff"/>
</svg>
