<svg xmlns="http://www.w3.org/2000/svg" width="114.225" height="128.326" viewBox="0 0 114.225 128.326">
  <g id="Group_2" data-name="Group 2" transform="translate(-29.956 -33.4)">
    <path id="Path_9" data-name="Path 9" d="M63.277,39.889a2.889,2.889,0,1,0-2.889,2.889A3.1,3.1,0,0,0,63.277,39.889Z" transform="translate(52.018 6.799)" fill="#fff"/>
    <path id="Path_10" data-name="Path 10" d="M59.077,56.389a2.889,2.889,0,1,0-2.889,2.889A2.895,2.895,0,0,0,59.077,56.389Z" transform="translate(44.087 37.959)" fill="#fff"/>
    <path id="Path_11" data-name="Path 11" d="M140.426,33.689h-95.9a16.471,16.471,0,0,0-3.755.289,10.454,10.454,0,0,0-8.666,6.644c-.289.867-.578,2.022-.867,2.889h74.235a7.658,7.658,0,0,1,6.932-4.622,7.8,7.8,0,0,1,0,15.6,7.455,7.455,0,0,1-7.221-5.2h-75.1c-.289,3.466,0,7.221,0,10.976H67.346V161.65a23.19,23.19,0,0,0,8.954-1.155V94.348a2.9,2.9,0,0,1,2.889-2.889H93.054a7.581,7.581,0,0,1,7.221-4.91,7.8,7.8,0,1,1,0,15.6,7.871,7.871,0,0,1-7.221-4.91H82.077v60.37A25.909,25.909,0,0,0,93.92,136.231V111.679c0-2.311.289-3.177,2.889-3.466,7.8-.867,13.576-4.91,18.2-11.265a21.4,21.4,0,0,0,4.333-15.309H94.209V59.686h23.108a26.51,26.51,0,0,0,24.841-17.62c.867-2.6,1.155-5.488,2.022-8.666A20.721,20.721,0,0,1,140.426,33.689Z" transform="translate(0 0)" fill="#fff"/>
  </g>
</svg>
