<svg xmlns="http://www.w3.org/2000/svg" xmlns:xlink="http://www.w3.org/1999/xlink" width="382" height="812" viewBox="0 0 382 812">
  <defs>
    <clipPath id="clip-path">
      <rect id="Rectangle_2" data-name="Rectangle 2" width="382" height="812" transform="translate(-7)" fill="#255aa8" stroke="#707070" stroke-width="1"/>
    </clipPath>
  </defs>
  <g id="Mask_Group_1" data-name="Mask Group 1" transform="translate(7)" clip-path="url(#clip-path)">
    <g id="Group_5" data-name="Group 5">
      <g id="Group_3" data-name="Group 3" transform="matrix(0.875, 0.485, -0.485, 0.875, -62.296, -280.997)" opacity="0.1">
        <path id="Path_9" data-name="Path 9" d="M82.256,49.378A12.378,12.378,0,1,0,69.878,61.756C77.3,60.518,82.256,55.567,82.256,49.378Z" transform="translate(313.402 40.961)" fill="#255aa8"/>
        <path id="Path_10" data-name="Path 10" d="M78.056,65.878A12.378,12.378,0,1,0,65.678,78.256,12.4,12.4,0,0,0,78.056,65.878Z" transform="translate(265.614 228.699)" fill="#255aa8"/>
        <path id="Path_11" data-name="Path 11" d="M503.347,34.638H92.4c-4.951,0-11.14,0-16.091,1.238C58.975,38.351,45.359,48.254,39.17,64.345c-1.238,3.713-2.476,8.665-3.713,12.378H353.573c4.951-11.14,16.091-19.8,29.707-19.8a33.421,33.421,0,0,1,0,66.841c-14.854,0-25.994-8.665-30.945-22.28H30.506c-1.238,14.854,0,30.945,0,47.037H190.182V582.985c13.616,1.238,25.994-1.238,38.372-4.951V294.577A12.4,12.4,0,0,1,240.932,282.2h59.415c4.951-12.378,16.091-21.043,30.945-21.043a33.421,33.421,0,0,1,0,66.841,33.73,33.73,0,0,1-30.945-21.043H253.31v258.7c29.707-19.8,50.75-53.226,50.75-91.6V368.845c0-9.9,1.238-13.616,12.378-14.854,33.421-3.713,58.177-21.043,77.982-48.274,13.616-18.567,21.043-39.61,18.567-65.6H305.3V146.04h99.024c48.274,0,90.36-30.945,106.451-75.506,3.714-11.14,4.951-23.518,8.665-37.134A88.8,88.8,0,0,1,503.347,34.638Z" transform="translate(0)" fill="#255aa8"/>
      </g>
      <g id="Group_4" data-name="Group 4" transform="translate(321.048 1193.513) rotate(-135)" opacity="0.1">
        <path id="Path_9-2" data-name="Path 9" d="M88.782,52.641A15.641,15.641,0,1,0,73.141,68.282C82.525,66.718,88.782,60.461,88.782,52.641Z" transform="translate(403.274 52.707)" fill="#255aa8"/>
        <path id="Path_10-2" data-name="Path 10" d="M84.582,69.141A15.641,15.641,0,1,0,68.941,84.782,15.674,15.674,0,0,0,84.582,69.141Z" transform="translate(341.782 294.281)" fill="#255aa8"/>
        <path id="Path_11-2" data-name="Path 11" d="M628.13,34.964H108.855c-6.256,0-14.077,0-20.333,1.564C66.625,39.656,49.42,52.169,41.6,72.5c-1.564,4.692-3.128,10.949-4.692,15.641H438.876c6.256-14.077,20.333-25.025,37.538-25.025a42.23,42.23,0,0,1,0,84.461c-18.769,0-32.846-10.949-39.1-28.153H30.651c-1.564,18.769,0,39.1,0,59.435H232.417V727.853c17.2,1.564,32.846-1.564,48.486-6.256V363.421a15.674,15.674,0,0,1,15.641-15.641h75.076c6.256-15.641,20.333-26.589,39.1-26.589a42.23,42.23,0,0,1,0,84.461,42.621,42.621,0,0,1-39.1-26.589H312.186V705.956c37.538-25.025,64.127-67.256,64.127-115.742V457.266c0-12.513,1.564-17.2,15.641-18.769,42.23-4.692,73.512-26.589,98.537-61,17.2-23.461,26.589-50.051,23.461-82.9H377.877V175.732H503c61,0,114.178-39.1,134.511-95.409,4.692-14.077,6.256-29.718,10.949-46.922A112.2,112.2,0,0,1,628.13,34.964Z" transform="translate(0)" fill="#255aa8"/>
      </g>
    </g>
  </g>
</svg>
