<svg xmlns="http://www.w3.org/2000/svg" width="22.376" height="24.867" viewBox="0 0 22.376 24.867">
  <path id="Path_3957" data-name="Path 3957" d="M21.415,5.071A.578.578,0,0,1,21.129,5,14.227,14.227,0,0,0,14.2,3.243,14.225,14.225,0,0,0,7.278,5a.623.623,0,1,1-.6-1.094A15.82,15.82,0,0,1,21.7,3.89a.629.629,0,0,1-.286,1.181ZM3.622,11.6a.648.648,0,0,1-.361-.112.62.62,0,0,1-.149-.87A12.855,12.855,0,0,1,7.775,6.551a14.353,14.353,0,0,1,12.819-.012,12.9,12.9,0,0,1,4.663,4.041.624.624,0,0,1-1.02.721,11.673,11.673,0,0,0-4.215-3.656,13.1,13.1,0,0,0-11.688.012,11.8,11.8,0,0,0-4.227,3.68.542.542,0,0,1-.485.261Zm7.771,15.008a.583.583,0,0,1-.435-.187,12.57,12.57,0,0,1-2.5-3.283,11.037,11.037,0,0,1-1.306-5.4,6.886,6.886,0,0,1,7.037-6.7,6.886,6.886,0,0,1,7.037,6.7.622.622,0,0,1-1.243,0,5.64,5.64,0,0,0-5.794-5.458A5.64,5.64,0,0,0,8.4,17.741a9.741,9.741,0,0,0,1.156,4.787,11.769,11.769,0,0,0,2.3,3.009.638.638,0,0,1,0,.883.682.682,0,0,1-.46.187Zm8.915-2.3A6.7,6.7,0,0,1,16.454,23.2a6.62,6.62,0,0,1-2.959-5.458.622.622,0,1,1,1.243,0,5.348,5.348,0,0,0,2.412,4.426,5.452,5.452,0,0,0,3.158.883,8.217,8.217,0,0,0,1.293-.124.624.624,0,0,1,.211,1.231,8.491,8.491,0,0,1-1.5.149Zm-2.5,2.561a.728.728,0,0,1-.162-.025,9.7,9.7,0,0,1-4.625-2.611,9.072,9.072,0,0,1-2.7-6.49,3.749,3.749,0,0,1,3.83-3.656,3.749,3.749,0,0,1,3.83,3.656,2.592,2.592,0,0,0,5.172,0,8.77,8.77,0,0,0-9.014-8.492A9.077,9.077,0,0,0,5.923,14.26a8,8,0,0,0-.734,3.481,12.356,12.356,0,0,0,.833,4.489.607.607,0,0,1-.361.8.617.617,0,0,1-.8-.361,13.852,13.852,0,0,1-.908-4.924A9.341,9.341,0,0,1,4.8,13.713a10.319,10.319,0,0,1,9.338-5.72A10.016,10.016,0,0,1,24.4,17.729a3.834,3.834,0,0,1-7.659,0,2.5,2.5,0,0,0-2.586-2.412,2.5,2.5,0,0,0-2.586,2.412,7.83,7.83,0,0,0,2.325,5.608,8.455,8.455,0,0,0,4.066,2.3.617.617,0,0,1,.435.758.607.607,0,0,1-.584.472Z" transform="translate(-2.997 -2)" fill="#255aa8"/>
</svg>
