<svg xmlns="http://www.w3.org/2000/svg" width="20.957" height="17.787" viewBox="0 0 20.957 17.787">
  <g id="photos" transform="translate(-106 -258.849)">
    <path id="Path_3923" data-name="Path 3923" d="M106,264.171c.038-.109.066-.219.109-.323a1.6,1.6,0,0,1,1.116-1c.1-.027.208-.06.323-.088.005-.142.005-.29.022-.427a1.568,1.568,0,0,1,1.614-1.379c1.412-.005,2.824-.016,4.241.005a6.419,6.419,0,0,0,1.795-.235q3.423-.919,6.857-1.817a1.628,1.628,0,0,1,2.058,1.188c.033.109.066.224.088.334a1.1,1.1,0,0,0,.547.854,1.363,1.363,0,0,1,.64,1.237c.005.328.022.657,0,.985a8.63,8.63,0,0,0,.383,2.961c.394,1.368.739,2.753,1.095,4.126a1.625,1.625,0,0,1-1.209,2.091c-.082.022-.17.044-.257.071-.011.148-.005.3-.027.432a1.57,1.57,0,0,1-1.625,1.374c-1.4.005-2.8.022-4.2-.005a7.424,7.424,0,0,0-2.112.285c-2.184.586-4.373,1.155-6.562,1.729a1.631,1.631,0,0,1-2.074-1.22c-.066-.252-.126-.5-.2-.75a.346.346,0,0,0-.142-.175,1.578,1.578,0,0,1-.925-1.516c0-.186-.011-.367,0-.553a10.114,10.114,0,0,0-.449-3.568c-.4-1.346-.722-2.714-1.078-4.072-.005-.016-.022-.038-.027-.055Zm10.053,6.206c.06-.066.109-.115.153-.17.427-.482.848-.963,1.275-1.439a.4.4,0,0,1,.668-.005c.077.077.148.164.219.246q2.036,2.307,4.083,4.619a.412.412,0,0,0,.257.115c.334.011.668.005,1,.005a.782.782,0,0,0,.881-.881v-10.2a.781.781,0,0,0-.887-.892h-1.822c-.323,0-.5-.153-.5-.41s.186-.4.509-.4h1.614c-.049-.2-.093-.361-.137-.52a.841.841,0,0,0-1.2-.706l-3.7.969c-.257.066-.514.142-.772.208,0,.016.005.038.005.055a3.7,3.7,0,0,1,.427.005.39.39,0,0,1,.35.4.4.4,0,0,1-.372.394c-.082.005-.164.005-.246.005h-8.6a.786.786,0,0,0-.9.9v10.157c0,.066,0,.137.005.2a.774.774,0,0,0,.3.558c.142.109.235.115.356-.055,1.368-1.965,2.753-3.918,4.11-5.894.35-.514.662-.52,1.012.005C114.762,268.566,115.413,269.452,116.053,270.377Zm1.768-.755c-1.215,1.379-2.413,2.731-3.623,4.1h7.246C120.223,272.342,119.03,270.99,117.821,269.622Zm-2.32,1.39c-.618-.887-1.231-1.757-1.85-2.643-1.253,1.8-2.49,3.563-3.743,5.347a.415.415,0,0,0,.1.027c.991,0,1.981.005,2.972-.005a.346.346,0,0,0,.2-.1c.208-.219.4-.449.6-.673C114.351,272.314,114.915,271.674,115.5,271.012Zm-6.025,3.563c.044.175.088.334.126.487a.839.839,0,0,0,1.171.69c1-.263,1.987-.52,2.983-.783l1.368-.361c0-.011-.005-.022-.005-.033Zm-1.921-10.945a.787.787,0,0,0-.706.985c.213.832.432,1.658.657,2.485a1.276,1.276,0,0,0,.049.126Zm17.868,8.247a.784.784,0,0,0,.711-.952c-.066-.3-.153-.591-.23-.887-.153-.569-.3-1.138-.454-1.707-.011,0-.016.005-.027.005Z" fill="#fff"/>
    <path id="Path_3924" data-name="Path 3924" d="M336.269,335.245a2.134,2.134,0,1,1-2.129-2.145A2.134,2.134,0,0,1,336.269,335.245Zm-3.448-.011a1.313,1.313,0,1,0,1.319-1.313A1.318,1.318,0,0,0,332.821,335.234Z" transform="translate(-213.632 -70.187)" fill="#fff"/>
    <path id="Path_3925" data-name="Path 3925" d="M354.21,297.808a.405.405,0,0,1-.81,0,.408.408,0,0,1,.416-.41A.4.4,0,0,1,354.21,297.808Z" transform="translate(-233.861 -36.439)" fill="#fff"/>
  </g>
</svg>
