<svg xmlns="http://www.w3.org/2000/svg" width="47.479" height="53.341" viewBox="0 0 47.479 53.341">
  <path id="Path_11" data-name="Path 11" d="M75.874,33.52H36.012a6.846,6.846,0,0,0-1.561.12,4.346,4.346,0,0,0-3.6,2.762c-.12.36-.24.84-.36,1.2H61.346a3.183,3.183,0,0,1,2.882-1.921,3.242,3.242,0,0,1,0,6.484,3.1,3.1,0,0,1-3-2.161H30.009c-.12,1.441,0,3,0,4.563H45.5V86.709a9.639,9.639,0,0,0,3.722-.48v-27.5a1.2,1.2,0,0,1,1.2-1.2h5.763a3.151,3.151,0,0,1,3-2.041,3.242,3.242,0,1,1,0,6.484,3.272,3.272,0,0,1-3-2.041H51.621V85.028a10.77,10.77,0,0,0,4.923-8.885V65.938c0-.961.12-1.321,1.2-1.441a10.506,10.506,0,0,0,7.564-4.683,8.9,8.9,0,0,0,1.8-6.363H56.664V44.326h9.605A11.019,11.019,0,0,0,76.595,37c.36-1.081.48-2.281.84-3.6A8.613,8.613,0,0,1,75.874,33.52Z" transform="translate(-29.956 -33.4)" fill="#fff"/>
</svg>
