<svg xmlns="http://www.w3.org/2000/svg" width="28.05" height="28.034" viewBox="0 0 28.05 28.034">
  <path id="Path_3988" data-name="Path 3988" d="M102.246,99.043v2.448a.882.882,0,0,1-.879.444q-9.386-.012-18.78-.008H75.164a.655.655,0,0,1-.752-.745V99.36a2.445,2.445,0,0,1,.372-1.283,2.584,2.584,0,0,1,2.131-1.22V85.482c-.61,0-1.2.008-1.782,0-.507-.008-.729-.238-.729-.737,0-.76.008-1.521-.008-2.281a.771.771,0,0,1,.428-.752c3.556-2.107,7.105-4.23,10.669-6.329a8.979,8.979,0,0,1,2.5-1.283h.7a7.276,7.276,0,0,1,.99.42q6.036,3.564,12.048,7.153a3.067,3.067,0,0,1,.5.467v2.883a.772.772,0,0,1-.832.459c-.325-.016-.65,0-.974,0h-.7V96.841a2.78,2.78,0,0,1,1.9.9A2.993,2.993,0,0,1,102.246,99.043ZM75.679,84.191h25.307c0-.412-.016-.808.008-1.2a.463.463,0,0,0-.261-.475Q94.9,79.066,89.089,75.6a1.338,1.338,0,0,0-1.5,0c-1.7,1.03-3.422,2.036-5.133,3.05q-3.279,1.949-6.551,3.9c-.087.048-.206.143-.206.214C75.671,83.241,75.679,83.708,75.679,84.191Zm.024,16.452h25.283V99.605A1.31,1.31,0,0,0,99.5,98.124H76.923a1.218,1.218,0,0,0-1.212,1.069C75.664,99.669,75.7,100.144,75.7,100.643Zm10.083-3.794V85.5H82.04V96.849Zm5.093,0h3.762V85.5H90.88Zm-10.163.008V85.5H78.238V96.857ZM87.093,85.49V96.849h2.479V85.49Zm8.856,0V96.841h2.479V85.49Z" transform="translate(-74.296 -74)" fill="#255aa8" stroke="#255aa8" stroke-width="0.2"/>
</svg>
