<svg xmlns="http://www.w3.org/2000/svg" width="28.884" height="25.073" viewBox="0 0 28.884 25.073">
  <g id="camera_1" data-name="camera 1" transform="translate(-70.2 -93.425)">
    <path id="Path_4012" data-name="Path 4012" d="M84.638,118.5H73.872a3.525,3.525,0,0,1-3.672-3.68V100.959a3.525,3.525,0,0,1,3.672-3.68c1.221,0,2.442-.008,3.672.008a.366.366,0,0,0,.418-.305c.121-.426.265-.844.418-1.253a3.466,3.466,0,0,1,3.254-2.3c2.009-.008,4.009-.008,6.018,0a3.467,3.467,0,0,1,3.254,2.29c.161.442.313.892.45,1.342a.28.28,0,0,0,.321.225c1.261-.008,2.523-.008,3.792,0a3.516,3.516,0,0,1,3.615,3.607v13.98a3.518,3.518,0,0,1-3.607,3.624Zm-.024-1.928H95.38a1.608,1.608,0,0,0,1.76-1.752V100.959A1.6,1.6,0,0,0,95.4,99.208H90.832a.969.969,0,0,1-1.053-.755c-.217-.643-.426-1.294-.651-1.936a1.6,1.6,0,0,0-1.607-1.165h-5.8a1.583,1.583,0,0,0-1.607,1.157c-.217.635-.418,1.277-.635,1.912a1,1,0,0,1-1.093.787H73.88a1.6,1.6,0,0,0-1.76,1.776v13.8a1.616,1.616,0,0,0,1.792,1.784Z" transform="translate(0 0)" fill="#255aa8"/>
    <path id="Path_4013" data-name="Path 4013" d="M167.23,177.4A7.235,7.235,0,1,1,160,184.574,7.235,7.235,0,0,1,167.23,177.4Zm-.008,12.542a5.3,5.3,0,1,0-5.3-5.3A5.3,5.3,0,0,0,167.222,189.941Z" transform="translate(-82.584 -77.227)" fill="#255aa8"/>
    <path id="Path_4014" data-name="Path 4014" d="M358.655,189.4a.964.964,0,1,1-.956.964A.964.964,0,0,1,358.655,189.4Z" transform="translate(-264.4 -88.264)" fill="#255aa8"/>
  </g>
</svg>
