<svg xmlns="http://www.w3.org/2000/svg" width="19.345" height="22.575" viewBox="0 0 19.345 22.575">
  <g id="csv" transform="translate(0)">
    <path id="Path_3980" data-name="Path 3980" d="M397.612,391.158H396.5c-.349,0-.5-.141-.5-.484v-6.294c0-.329.148-.47.484-.477h1.128V372.4c0-.484.107-.591.591-.6q5.491,0,10.982-.007a.656.656,0,0,1,.5.215q1.9,1.924,3.829,3.829a.686.686,0,0,1,.222.531c-.007,2.4-.007,4.8-.007,7.2v.322h1.1c.376,0,.51.141.51.524v6.22c0,.376-.141.51-.517.51h-1.095v2.693c0,.4-.134.531-.531.531H398.136c-.4,0-.531-.134-.531-.524C397.612,392.965,397.612,392.078,397.612,391.158Zm15.3-7.268v-7.247h-3.439c-.457,0-.571-.121-.571-.584v-3.432H398.438V383.89Zm1.619.833H396.826v5.615h17.706Zm-1.612,8.839v-2.391H398.438v2.391Zm-3.2-17.746h2.492c-.813-.813-1.666-1.673-2.492-2.492Z" transform="translate(-396 -371.8)" fill="#255aa8"/>
    <path id="Path_3981" data-name="Path 3981" d="M461.809,468.783H456.8a1.537,1.537,0,0,1-.248-.007.384.384,0,0,1-.349-.4.379.379,0,0,1,.349-.4,1.28,1.28,0,0,1,.228-.007h10.129a1.3,1.3,0,0,1,.228.007.4.4,0,0,1,0,.793,1.538,1.538,0,0,1-.249.007Z" transform="translate(-452.156 -461.515)" fill="#255aa8"/>
    <path id="Path_3982" data-name="Path 3982" d="M461.809,504.783H456.8a1.537,1.537,0,0,1-.248-.007.383.383,0,0,1-.349-.4.379.379,0,0,1,.349-.4,1.268,1.268,0,0,1,.228-.007h10.129a1.287,1.287,0,0,1,.228.007.4.4,0,0,1,0,.793,1.538,1.538,0,0,1-.249.007Z" transform="translate(-452.156 -495.097)" fill="#255aa8"/>
    <path id="Path_3983" data-name="Path 3983" d="M516.743,576.792v.793c.074.007.148.013.222.013.464,0,.92-.007,1.384,0a.8.8,0,0,1,.806.8c.007.275.007.551,0,.833a.8.8,0,0,1-.766.786c-.678.013-1.357.007-2.042,0a.393.393,0,0,1-.417-.41.4.4,0,0,1,.437-.39c.564-.007,1.122,0,1.686,0h.282v-.793c-.067-.007-.141-.013-.215-.013-.464,0-.92.007-1.384,0a.8.8,0,0,1-.806-.8c-.007-.275-.007-.551,0-.833a.792.792,0,0,1,.766-.786c.678-.013,1.357-.007,2.042,0a.393.393,0,0,1,.417.41.4.4,0,0,1-.437.39c-.571.007-1.142,0-1.713,0Z" transform="translate(-507.87 -562.27)" fill="#255aa8"/>
    <path id="Path_3984" data-name="Path 3984" d="M455.907,577.845c0-.275-.007-.551,0-.833a1.21,1.21,0,0,1,1.175-1.182c.3-.007.584-.007.88,0a1.213,1.213,0,0,1,1.155,1.034c.047.3-.081.524-.322.564s-.417-.114-.477-.423a.4.4,0,0,0-.43-.369c-.249-.007-.5-.007-.752,0a.4.4,0,0,0-.423.43c-.007.517-.007,1.041,0,1.558a.4.4,0,0,0,.43.423c.249.007.5.007.752,0a.4.4,0,0,0,.423-.376c.054-.3.215-.457.457-.423s.383.249.343.551a1.217,1.217,0,0,1-1.169,1.054c-.3.007-.584.007-.88,0a1.208,1.208,0,0,1-1.169-1.182C455.9,578.4,455.907,578.127,455.907,577.845Z" transform="translate(-451.876 -562.121)" fill="#255aa8"/>
    <path id="Path_3985" data-name="Path 3985" d="M577.91,578.4c.269-.705.51-1.35.746-1.995.027-.06.04-.128.074-.188a.4.4,0,0,1,.531-.249.4.4,0,0,1,.222.537c-.195.544-.4,1.081-.6,1.625-.188.5-.376.987-.551,1.484-.074.195-.181.349-.41.349a.43.43,0,0,1-.416-.336q-.574-1.531-1.149-3.056c-.108-.289-.027-.517.215-.6.222-.081.43.034.537.316.235.618.463,1.236.7,1.86A2.157,2.157,0,0,0,577.91,578.4Z" transform="translate(-564.194 -562.225)" fill="#255aa8"/>
  </g>
</svg>
