<svg xmlns="http://www.w3.org/2000/svg" width="27.304" height="27.301" viewBox="0 0 27.304 27.301">
  <g id="id-card_1_" data-name="id-card (1)" transform="translate(-58 -58.6)">
    <path id="Path_3990" data-name="Path 3990" d="M58,83.351V68.208a.136.136,0,0,0,.036-.071,2.969,2.969,0,0,1,3.049-2.5c2.415.028,4.836.007,7.251.007h.335c-.028-.385-.057-.734-.085-1.09-.135-1.681-.271-3.362-.392-5.05a.8.8,0,0,1,.848-.9h5.228a.8.8,0,0,1,.848.9c0,.071-.007.142-.014.214-.15,1.909-.306,3.825-.456,5.734a.876.876,0,0,0,.014.185h7.557a3.942,3.942,0,0,1,.819.078A2.9,2.9,0,0,1,85.3,68.629c.007,3.369,0,6.731,0,10.1,0,1.425.007,2.842-.007,4.266a2.929,2.929,0,0,1-2.051,2.764c-.171.05-.342.093-.506.142H60.55c-.043-.014-.078-.036-.121-.05a2.885,2.885,0,0,1-2.3-2.009C58.078,83.693,58.043,83.515,58,83.351Zm16.382-14.5h.442a.8.8,0,1,1,0,1.6q-3.173.011-6.346,0a.8.8,0,1,1,.014-1.6h.42c-.043-.556-.085-1.068-.128-1.6H61.063a1.344,1.344,0,0,0-1.474,1.467V82.838a1.346,1.346,0,0,0,1.482,1.467H82.21A1.349,1.349,0,0,0,83.7,82.824v-14.1a1.351,1.351,0,0,0-1.5-1.482H74.5C74.468,67.781,74.425,68.3,74.382,68.849Zm-1.6-.014c.228-2.87.449-5.734.67-8.611h-3.6c.228,2.878.449,5.741.677,8.611Z" transform="translate(0 0)" fill="#255aa8"/>
    <path id="Path_3991" data-name="Path 3991" d="M105.853,245.56a3.461,3.461,0,0,1-.677-2.92,3.383,3.383,0,0,1,1.275-2,3.474,3.474,0,0,1,4.815,4.943c.085.05.164.093.242.135a3.966,3.966,0,0,1,2.115,3.469c.014.356.007.712,0,1.068a.8.8,0,0,1-.848.855h-8.447a.761.761,0,0,1-.819-.684,7.144,7.144,0,0,1,.114-2.2,3.992,3.992,0,0,1,2.016-2.529c.064-.036.121-.064.185-.1C105.839,245.6,105.839,245.588,105.853,245.56ZM112,249.5a2.3,2.3,0,0,0-1.88-2.578,13.888,13.888,0,0,0-3.077-.007,2.278,2.278,0,0,0-1.923,2.578Q108.56,249.5,112,249.5Zm-3.447-7.984a1.866,1.866,0,1,0,1.873,1.859A1.877,1.877,0,0,0,108.553,241.514Z" transform="translate(-42.241 -168.405)" fill="#255aa8"/>
    <path id="Path_3992" data-name="Path 3992" d="M272.958,254.859h3.6a.8.8,0,1,1,.014,1.6H269.3a.8.8,0,1,1,.014-1.6C270.53,254.852,271.741,254.859,272.958,254.859Z" transform="translate(-195.414 -182.277)" fill="#255aa8"/>
    <path id="Path_3993" data-name="Path 3993" d="M272.9,308.8h-3.6a.807.807,0,1,1-.007-1.6h7.272a.8.8,0,1,1,.014,1.6C275.352,308.8,274.127,308.8,272.9,308.8Z" transform="translate(-195.414 -230.893)" fill="#255aa8"/>
    <path id="Path_3994" data-name="Path 3994" d="M272.964,359.7h3.625a.8.8,0,1,1,.014,1.6h-7.322a.8.8,0,0,1-.8-1.111.79.79,0,0,1,.791-.484Z" transform="translate(-195.419 -279.654)" fill="#255aa8"/>
  </g>
</svg>
