<svg xmlns="http://www.w3.org/2000/svg" width="28.244" height="30.198" viewBox="0 0 28.244 30.198">
  <g id="test" transform="translate(-360.2 -348)">
    <path id="Path_4057" data-name="Path 4057" d="M362.481,348h12.268a.6.6,0,0,0,.1.047,4.5,4.5,0,0,1,2.682,1.408c1.093,1.14,2.186,2.288,3.3,3.405a4.7,4.7,0,0,1,1.431,3.547c-.024,2.469-.008,4.931-.008,7.4v.385c.134.024.236.047.338.071a7,7,0,0,1,1.132,13.518c-.558.189-1.156.275-1.738.417h-1.243a.309.309,0,0,0-.11-.039,7.032,7.032,0,0,1-4.011-1.8.691.691,0,0,0-.26-.1.887.887,0,0,0-.2,0h-13.2a2.636,2.636,0,0,1-2.414-1.361,2.878,2.878,0,0,1-.346-1.533V350.894a4.044,4.044,0,0,1,.016-.44,2.521,2.521,0,0,1,1.258-2.053A7.89,7.89,0,0,1,362.481,348Zm18.025,16.2v-.338c0-2.509-.008-5.009.008-7.518a3.008,3.008,0,0,0-.9-2.226q-1.663-1.687-3.3-3.413a2.922,2.922,0,0,0-2.233-.952q-5.5.012-11,.008c-.771,0-1.093.315-1.093,1.093v22.531c0,.771.322,1.093,1.085,1.093h12.1A7.088,7.088,0,0,1,380.505,364.2Zm6.189,6.983a5.277,5.277,0,1,0-5.324,5.245A5.279,5.279,0,0,0,386.694,371.183Z" transform="translate(0)" fill="#255aa8"/>
    <path id="Path_4058" data-name="Path 4058" d="M411.732,456.759H414a.885.885,0,1,1,0,1.762h-4.538a.885.885,0,1,1,0-1.762C410.222,456.751,410.977,456.759,411.732,456.759Z" transform="translate(-44.502 -100.203)" fill="#255aa8"/>
    <path id="Path_4059" data-name="Path 4059" d="M411.64,518.469h-2.273a.889.889,0,1,1,.008-1.769h4.538a.889.889,0,1,1-.008,1.769C413.15,518.477,412.395,518.469,411.64,518.469Z" transform="translate(-44.409 -155.433)" fill="#255aa8"/>
    <path id="Path_4060" data-name="Path 4060" d="M411.764,576.759H414a.885.885,0,1,1,0,1.762h-4.538a.885.885,0,1,1,0-1.762C410.23,576.751,411,576.759,411.764,576.759Z" transform="translate(-44.502 -210.766)" fill="#255aa8"/>
    <path id="Path_4061" data-name="Path 4061" d="M529.735,458.423c-.165,0-.338.008-.5,0a.882.882,0,0,1,.008-1.762c.346-.016.692-.016,1.03,0a.872.872,0,0,1,.834.865.885.885,0,0,1-.841.9C530.089,458.431,529.908,458.423,529.735,458.423Z" transform="translate(-154.971 -100.106)" fill="#255aa8"/>
    <path id="Path_4062" data-name="Path 4062" d="M529.859,518.423c-.173,0-.354.008-.527,0a.882.882,0,0,1,.008-1.762c.346-.016.692-.016,1.03,0a.872.872,0,0,1,.834.865.885.885,0,0,1-.841.9C530.189,518.431,530.024,518.423,529.859,518.423Z" transform="translate(-155.063 -155.387)" fill="#255aa8"/>
    <path id="Path_4063" data-name="Path 4063" d="M597.284,615.59c.48-.574.92-1.117,1.384-1.651a1.519,1.519,0,0,1,.417-.362.845.845,0,0,1,1.062.244.878.878,0,0,1-.016,1.117c-.566.7-1.156,1.392-1.73,2.084-.2.244-.393.488-.606.724a.873.873,0,0,1-1.5-.181c-.315-.6-.613-1.2-.912-1.817a.882.882,0,1,1,1.581-.779C597.064,615.15,597.158,615.339,597.284,615.59Z" transform="translate(-216.59 -244.604)" fill="#255aa8"/>
  </g>
</svg>
