<svg xmlns="http://www.w3.org/2000/svg" width="29.964" height="30" viewBox="0 0 29.964 30">
  <g id="Deposits" transform="translate(-30.9 -8.348)">
    <path id="Path_3392" data-name="Path 3392" d="M36.769,14.811a9.821,9.821,0,0,1,2.34-3.7A9.631,9.631,0,0,1,54.83,14.481a.444.444,0,0,0,.509.331,22.55,22.55,0,0,1,2.8.054,3.116,3.116,0,0,1,2.715,3.216c.009,3.287,0,6.574,0,9.862v7.021a3.219,3.219,0,0,1-3.376,3.385H34.277A3.212,3.212,0,0,1,30.9,34.972V18.188a3.207,3.207,0,0,1,3.376-3.376ZM58.716,24.45V22.538c0-.9-.393-1.3-1.3-1.3H36.152c-1.027,0-2.063-.036-3.117-.045v13.72c0,.929.384,1.313,1.322,1.313H57.492a1.086,1.086,0,0,0,1.224-1.206V33.284c0-.08-.018-.17-.027-.268-1.126,0-2.233.018-3.332,0a4.28,4.28,0,0,1,.179-8.557C56.581,24.441,57.635,24.45,58.716,24.45ZM46.987,12.855c.107.054.232.1.348.161a3.167,3.167,0,0,1,1.751,2.841,1.049,1.049,0,0,1-.679,1.018,1.07,1.07,0,0,1-1.456-.992,1.073,1.073,0,1,0-2.144.071,1.06,1.06,0,0,0,1.045.983,3.217,3.217,0,0,1,2.983,1.956.436.436,0,0,0,.322.179c1.3.009,2.608.009,3.912.009a1.757,1.757,0,0,0,.214-.027A7.484,7.484,0,0,0,41.414,12a7.361,7.361,0,0,0-2.921,7.075h6.8a.169.169,0,0,0-.116-.063,3.23,3.23,0,0,1-2.5-2.841,3.194,3.194,0,0,1,1.938-3.243c.188-.089.188-.205.2-.366a1.067,1.067,0,0,1,2.063-.277A4.6,4.6,0,0,1,46.987,12.855ZM58.707,26.584h-.286c-1.036,0-2.072-.036-3.109.018a2.1,2.1,0,0,0-1.938,2.2,2.142,2.142,0,0,0,2.054,2.063c.536.018,1.072,0,1.6.009H58.7C58.707,29.434,58.707,28.031,58.707,26.584Zm-3.225-7.432h3.234c0-.357.018-.795-.009-1.224a1,1,0,0,0-.875-.956c-.786-.045-1.572-.009-2.349-.009C55.482,17.679,55.482,18.358,55.482,19.153Zm-19.25-2.2c-.75,0-1.465-.009-2.171,0a1.046,1.046,0,0,0-1.018.965,1.024,1.024,0,0,0,.866,1.134c.768.054,1.545.018,2.331.018C36.233,18.366,36.233,17.679,36.233,16.955Z" transform="translate(0 0)" fill="#255aa8"/>
    <path id="Path_3393" data-name="Path 3393" d="M176.751,226.667c-.357,0-.715.009-1.072,0a1.067,1.067,0,1,1-.009-2.135c.715-.009,1.429-.009,2.135,0a1.067,1.067,0,0,1,.009,2.135C177.466,226.675,177.109,226.667,176.751,226.667Z" transform="translate(-130.863 -196.866)" fill="#255aa8"/>
  </g>
</svg>
