<svg xmlns="http://www.w3.org/2000/svg" width="32.439" height="26.469" viewBox="0 0 32.439 26.469">
  <g id="Credit_Debit_card_deposit" data-name="Credit Debit card deposit" transform="translate(-82.875 -266.775)">
    <path id="Path_4017" data-name="Path 4017" d="M115.189,273.616v.754c-.024.1-.047.2-.063.3-.157,1.665-.306,3.33-.463,4.988-.2,2.16-.408,4.328-.613,6.488-.157,1.665-.33,3.323-.463,4.988A2.188,2.188,0,0,1,111.1,293.1c-2.082-.22-4.155-.463-6.237-.7q-4.324-.483-8.64-.974l-9.7-1.084a1.941,1.941,0,0,1-1.822-1.359,1.7,1.7,0,0,0-.88-1.17,2.1,2.1,0,0,1-.825-1.28V268.722c.534-1.445,1.076-1.822,2.647-1.822h24.067a2.153,2.153,0,0,1,1.814.888,2.316,2.316,0,0,1,.424,1.445v2.372c.353.047.683.094,1.013.118a2.205,2.205,0,0,1,1.893,1.107A5.213,5.213,0,0,1,115.189,273.616Zm-31.105,1.327v10.989c0,.9.393,1.3,1.3,1.3h24.185c.935,0,1.32-.385,1.32-1.312V274.943ZM85.679,288.3a1.018,1.018,0,0,0,.982.974c.785.1,1.579.181,2.372.267,2.129.236,4.265.479,6.394.715l6.457.731c2.144.243,4.281.487,6.425.723.974.11,1.956.228,2.93.33a1.071,1.071,0,0,0,1.249-1.021c.055-.479.094-.958.141-1.437.2-2.152.4-4.3.6-6.457.181-1.9.361-3.81.542-5.711.11-1.178.228-2.349.33-3.527a1.006,1.006,0,0,0-.746-1.123c-.448-.079-.9-.094-1.4-.141v.44c0,4.273.008,8.554-.008,12.827a2.865,2.865,0,0,1-.228,1.178,2.106,2.106,0,0,1-2.113,1.225q-11.771-.012-23.533,0C85.953,288.3,85.82,288.3,85.679,288.3Zm25.2-17.626H84.115v3.165h26.762Zm-.008-1.115a1.235,1.235,0,0,0-1.367-1.6q-12.053.035-24.1,0a1.2,1.2,0,0,0-1.272,1.6Z" fill="#255aa8" stroke="#255aa8" stroke-width="0.25"/>
    <path id="Path_4018" data-name="Path 4018" d="M299.607,429.483h-4.077c-.566,0-.731-.157-.731-.723v-4.446c0-.542.173-.715.715-.715h8.224c.542,0,.715.173.715.715v4.477c0,.526-.165.691-.691.691Zm-3.708-4.8V428.4h7.462v-3.715Z" transform="translate(-195.163 -144.391)" fill="#255aa8" stroke="#255aa8" stroke-width="0.25"/>
    <path id="Path_4019" data-name="Path 4019" d="M114.537,424.668h-3.393c-.369,0-.542-.126-.6-.416a.5.5,0,0,1,.385-.621,1.467,1.467,0,0,1,.369-.031h6.5a1.9,1.9,0,0,1,.369.031.475.475,0,0,1,.385.534.465.465,0,0,1-.44.487,4.05,4.05,0,0,1-.44.016Z" transform="translate(-25.363 -144.391)" fill="#255aa8" stroke="#255aa8" stroke-width="0.25"/>
    <path id="Path_4020" data-name="Path 4020" d="M113.179,397.491h-2.042c-.416,0-.636-.2-.636-.526s.228-.534.636-.534c1.359-.008,2.726-.008,4.085,0,.416,0,.628.189.628.534s-.2.526-.628.534C114.545,397.491,113.862,397.491,113.179,397.491Z" transform="translate(-25.34 -119.351)" fill="#255aa8" stroke="#255aa8" stroke-width="0.25"/>
    <path id="Path_4021" data-name="Path 4021" d="M195.245,397.468h-2.011q-.636,0-.636-.518c-.008-.361.2-.542.652-.55H197.3c.416,0,.644.2.644.526.008.346-.228.542-.66.542Z" transform="translate(-100.989 -119.328)" fill="#255aa8" stroke="#255aa8" stroke-width="0.25"/>
    <path id="Path_4022" data-name="Path 4022" d="M227.827,424.556c-.259,0-.518.008-.786,0a.5.5,0,0,1-.542-.518.513.513,0,0,1,.5-.534c.566-.024,1.123-.024,1.689.008a.493.493,0,0,1,.479.55.509.509,0,0,1-.534.5h-.063c-.243,0-.495,0-.746-.008Z" transform="translate(-132.228 -144.286)" fill="#255aa8" stroke="#255aa8" stroke-width="0.25"/>
  </g>
</svg>
