<svg xmlns="http://www.w3.org/2000/svg" width="24.363" height="27.834" viewBox="0 0 24.363 27.834">
  <g id="deposit" transform="translate(-129.796 -229.361)">
    <path id="Path_4015" data-name="Path 4015" d="M130.239,257.2a.716.716,0,0,1-.443-.762c.015-.682,0-1.357.007-2.039,0-.464.218-.675.689-.682.327,0,.653,0,.98-.007.014,0,.029-.015.073-.029v-1.531c0-.552.2-.755.747-.755h.392v-4.63h-.464a.6.6,0,0,1-.675-.668v-1.655H130.5c-.486-.007-.689-.2-.689-.7v-1.495a.707.707,0,0,1,.443-.7c1.916-.943,3.817-1.9,5.726-2.859.087-.044.174-.094.276-.145a6.341,6.341,0,0,1-.283-4.92,6.155,6.155,0,0,1,2.286-3.055,6.382,6.382,0,0,1,9.463,7.983c.08.044.152.087.232.123,1.909.958,3.81,1.916,5.726,2.859a.736.736,0,0,1,.472.74c-.007.515,0,1.031-.007,1.546a.569.569,0,0,1-.631.617c-.363.007-.718,0-1.1,0V246c0,.552-.2.747-.755.747h-.385v4.63h.472a.6.6,0,0,1,.668.675V253.7h1.052a.6.6,0,0,1,.689.682c0,.682-.015,1.357.007,2.039a.721.721,0,0,1-.443.762Q141.97,257.2,130.239,257.2Zm11.735-16.234a5.214,5.214,0,1,0-5.211-5.211A5.2,5.2,0,0,0,141.973,240.961Zm-11.009,2.308H152.99a3.524,3.524,0,0,1,0-.392c.051-.3-.08-.443-.348-.573-1.778-.871-3.541-1.763-5.312-2.649l-.239-.109c.022.036.051.065.073.1-.45.472-.9.936-1.35,1.408a1.153,1.153,0,0,1-.094-.094h.646q.806-.011.827.566c.007.385-.276.6-.8.6h-8.825a.727.727,0,0,1-.733-.334.573.573,0,0,1,.566-.827c.283-.007.566,0,.849,0l-.109.087c-.457-.472-.907-.951-1.393-1.451-1.814.907-3.723,1.865-5.624,2.823a.284.284,0,0,0-.145.189A4.959,4.959,0,0,0,130.964,243.269Zm6.379,10.429h1.742c0-.559-.007-1.1,0-1.647a.592.592,0,0,1,.653-.66c.16-.007.319,0,.486,0v-4.63c-.181,0-.356.007-.523,0a.57.57,0,0,1-.617-.61c-.007-.443,0-.885,0-1.328v-.363h-1.72a1.491,1.491,0,0,0-.015.152c0,.5.007.994,0,1.495a.6.6,0,0,1-.66.653H136.2v4.63h.341c.624,0,.813.189.813.806C137.343,252.7,137.343,253.2,137.343,253.7Zm10.414-2.3v-4.63h-.523a.577.577,0,0,1-.624-.6c-.014-.29,0-.581-.007-.871v-.827H144.9c-.015.036-.029.051-.029.065,0,.472-.007.943-.007,1.408,0,.66-.16.82-.813.82h-.319v4.63c.2,0,.363-.007.537,0a.577.577,0,0,1,.6.6c.007.21,0,.414,0,.624v1.074H146.6v-1.422c0-.726.152-.885.871-.885A1.756,1.756,0,0,0,147.757,251.4Zm-16.786,4.623h22v-1.125h-22Zm11.568-4.637v-4.6h-1.132v4.6Zm-8.665-.007h1.132v-4.594h-1.132Zm15.073-4.6v4.6h1.11v-4.6Zm-5.24-2.308h-3.454v1.125h3.454Zm-7.547,0h-3.44V245.6h3.44Zm11.64-.007v1.132h3.433v-1.132ZM136.16,253.7V252.58h-3.44V253.7Zm4.086-.007h3.447V252.58h-3.447Zm7.54.007h3.447v-1.118h-3.447Z" transform="translate(0 0)" fill="#255aa8"/>
    <path id="Path_4016" data-name="Path 4016" d="M267.429,262.839v-.472c.007-.414.232-.668.588-.668s.573.254.581.675v.472c.392,0,.762-.007,1.139,0a.571.571,0,0,1,.508.864.611.611,0,0,1-.573.29c-.718,0-1.43-.007-2.148,0a.6.6,0,0,0-.66.479.577.577,0,0,0,.617.682c.392.014.777-.007,1.168.007a1.714,1.714,0,0,1,1.669,1.582,1.737,1.737,0,0,1-1.277,1.822c-.138.036-.283.058-.45.087,0,.174.007.348,0,.515a.582.582,0,1,1-1.161-.007c-.007-.16,0-.327,0-.523-.377,0-.733.007-1.1,0a.584.584,0,0,1-.61-.755.616.616,0,0,1,.66-.414h2.148a.578.578,0,0,0,.624-.45.569.569,0,0,0-.566-.7c-.334-.015-.668,0-1,0a1.748,1.748,0,1,1-.16-3.491Z" transform="translate(-126.036 -29.992)" fill="#255aa8"/>
  </g>
</svg>
