<svg xmlns="http://www.w3.org/2000/svg" width="23.028" height="29" viewBox="0 0 23.028 29">
  <g id="file_downloade" data-name="file downloade" transform="translate(-337.8 -266.6)">
    <path id="Path_3972" data-name="Path 3972" d="M353.232,266.611c.171.159.353.313.518.484q3.348,3.511,6.7,7.015a1.267,1.267,0,0,1,.376.934q-.009,8.285-.006,16.565A3.822,3.822,0,0,1,357.8,295.5a3.956,3.956,0,0,1-.9.091q-7.593.009-15.181,0a3.821,3.821,0,0,1-3.918-3.935V270.5a3.834,3.834,0,0,1,2.887-3.838.6.6,0,0,0,.12-.063Q347.025,266.617,353.232,266.611Zm-.974,1.372c-.108-.006-.194-.017-.273-.017-3.417,0-6.828-.006-10.244,0a2.412,2.412,0,0,0-2.534,2.557v21.1a2.424,2.424,0,0,0,2.58,2.568h15.033a2.436,2.436,0,0,0,2.591-2.591V275.466h-3.929a3.056,3.056,0,0,1-3.223-3.217v-4.265Zm6.173,6.059-4.749-4.988c-.011.154-.017.228-.017.3,0,.962-.006,1.93,0,2.893a1.675,1.675,0,0,0,1.828,1.811c.877.006,1.76,0,2.637,0C358.209,274.06,358.294,274.048,358.431,274.043Z" fill="#fff"/>
    <path id="Path_3973" data-name="Path 3973" d="M461.124,444.014c.5-.535.934-1,1.372-1.469.512-.547,1.014-1.093,1.532-1.634a.69.69,0,0,1,.854-.131.68.68,0,0,1,.307.809.871.871,0,0,1-.205.33c-1.327,1.429-2.648,2.853-3.98,4.276a.716.716,0,0,1-1.19-.028q-1.973-2.11-3.941-4.237a.716.716,0,0,1-.011-1.076.709.709,0,0,1,1.031.125q1.29,1.375,2.568,2.762a2.038,2.038,0,0,1,.165.222l.085-.034V443.6q0-3.5.006-7a1.461,1.461,0,0,1,.074-.524.674.674,0,0,1,.763-.4.71.71,0,0,1,.564.717c.006,1.236,0,2.477,0,3.713v3.542C461.124,443.735,461.124,443.832,461.124,444.014Z" transform="translate(-111.115 -159.431)" fill="#fff"/>
    <path id="Path_3974" data-name="Path 3974" d="M432.668,666.276c1.891,0,3.781-.006,5.672.006a1.107,1.107,0,0,1,.575.182.591.591,0,0,1,.239.655.666.666,0,0,1-.5.524,1.51,1.51,0,0,1-.393.04h-11.15a1.213,1.213,0,0,1-.5-.085.677.677,0,0,1-.387-.774.728.728,0,0,1,.735-.547Z" transform="translate(-83.377 -376.916)" fill="#fff"/>
  </g>
</svg>
