<svg xmlns="http://www.w3.org/2000/svg" width="32.479" height="30.939" viewBox="0 0 32.479 30.939">
  <g id="Group_902" data-name="Group 902" transform="translate(-8138.762 1839.251)">
    <path id="Path_3385" data-name="Path 3385" d="M42.2,49.874a.719.719,0,0,1,.684-.327c1.041.01,2.082,0,3.123,0h.367c.01-.139.02-.248.02-.357q.059-8.775.119-17.541c0-.674.149-.813.833-.813q6.1,0,12.206.01a.424.424,0,0,0,.466-.317A7.354,7.354,0,1,1,68.08,40.573c-.526.089-1.071.109-1.656.169V52.274a4.039,4.039,0,0,1-3.332,4.056,6.824,6.824,0,0,1-1.269.079c-5.146,0-10.3.01-15.449,0a4.1,4.1,0,0,1-4.105-3.4,1.642,1.642,0,0,0-.059-.208C42.2,51.838,42.2,50.856,42.2,49.874Zm5.235-.317H58.68c.456.01.615.159.615.625v2.033a3.307,3.307,0,0,0,.04.625,3.034,3.034,0,0,0,6.029-.516c.01-3.827,0-7.655.01-11.482,0-.228-.079-.288-.288-.337A7.168,7.168,0,0,1,60.8,37.549a.444.444,0,0,0-.436-.208c-1.636.01-3.262,0-4.9,0a2.594,2.594,0,0,1-.278,0,.526.526,0,0,1-.506-.535.519.519,0,0,1,.5-.506,2.592,2.592,0,0,1,.278,0h4.621a7.459,7.459,0,0,1-.486-4.373H47.554Q47.495,40.7,47.435,49.557Zm25.692-16.2a6.311,6.311,0,1,0-6.306,6.316A6.3,6.3,0,0,0,73.127,33.355ZM43.251,50.6c0,.625-.02,1.239,0,1.844A3,3,0,0,0,46.3,55.368c4.343.01,8.7,0,13.039,0,.079,0,.149-.02.248-.03a4.186,4.186,0,0,1-1.329-3.282V50.588C53.236,50.6,48.258,50.6,43.251,50.6Z" transform="translate(8096.812 -1864.975)" fill="#255aa8" stroke="#255aa8" stroke-width="0.5"/>
    <path id="Path_3386" data-name="Path 3386" d="M172.013,222.391h-3.342a.523.523,0,0,1-.595-.466c-.03-.337.2-.565.585-.565.635-.01,1.269,0,1.9,0h4.65a2.592,2.592,0,0,1,.278,0,.516.516,0,0,1-.02,1.031c-.625.01-1.249,0-1.874,0Z" transform="translate(7983.419 -2040.982)" fill="#255aa8" stroke="#255aa8" stroke-width="0.5"/>
    <path id="Path_3387" data-name="Path 3387" d="M171.988,175.61h3.371a.5.5,0,0,1,.555.5.513.513,0,0,1-.535.526,2.6,2.6,0,0,1-.278,0h-6.525a.524.524,0,0,1-.575-.387.509.509,0,0,1,.555-.645C169.707,175.6,170.847,175.61,171.988,175.61Z" transform="translate(7983.503 -1999.764)" fill="#255aa8" stroke="#255aa8" stroke-width="0.5"/>
    <path id="Path_3388" data-name="Path 3388" d="M126.312,120.913a1.657,1.657,0,1,1-1.636-1.616A1.641,1.641,0,0,1,126.312,120.913Zm-1.656.545a.563.563,0,1,0-.615-.565A.584.584,0,0,0,124.656,121.458Z" transform="translate(8024.023 -1949.043)" fill="#255aa8" stroke="#255aa8" stroke-width="0.5"/>
    <path id="Path_3389" data-name="Path 3389" d="M126.312,166.3a1.657,1.657,0,1,1-1.646-1.6A1.64,1.64,0,0,1,126.312,166.3Zm-1.656.565a.591.591,0,0,0,.625-.555.611.611,0,0,0-.615-.575.6.6,0,0,0-.625.555A.591.591,0,0,0,124.656,166.862Z" transform="translate(8024.023 -1989.944)" fill="#255aa8" stroke="#255aa8" stroke-width="0.5"/>
    <path id="Path_3390" data-name="Path 3390" d="M126.311,211.805a1.657,1.657,0,1,1-1.636-1.606A1.606,1.606,0,0,1,126.311,211.805Zm-1.646.545a.584.584,0,0,0,.615-.565.612.612,0,0,0-.625-.565.6.6,0,0,0-.615.575A.591.591,0,0,0,124.665,212.351Z" transform="translate(8024.024 -2030.932)" fill="#255aa8" stroke="#255aa8" stroke-width="0.5"/>
    <g id="Layer_2" data-name="Layer 2" transform="translate(8161.089 -1835.847)">
      <g id="Layer_1" data-name="Layer 1">
        <path id="Path_4035" data-name="Path 4035" d="M2.02,4.779H0L3.374,0l.015.006C3.206,1.1,3.025,2.19,2.842,3.291h1.99L1.493,8.855l-.015-.006ZM1.963,7.46l.017.006L4.306,3.59H2.491l.391-2.351-.014-.006L.572,4.484H2.359c-.133,1-.265,1.987-.4,2.975Z" fill="#255aa8" stroke="#255aa8" stroke-width="0.5"/>
      </g>
    </g>
  </g>
</svg>
