<svg xmlns="http://www.w3.org/2000/svg" width="23.645" height="18.016" viewBox="0 0 23.645 18.016">
  <path id="email" d="M93,281.5V267.185a.242.242,0,0,0,.029-.062,2.1,2.1,0,0,1,2.18-1.788c.916.016,1.832,0,2.748,0h16.486a2.078,2.078,0,0,1,2.2,2.136q.01,6.87-.007,13.74a2.31,2.31,0,0,1-.216.954,2.036,2.036,0,0,1-2,1.183H95.07a2.105,2.105,0,0,1-1.635-.818A2.556,2.556,0,0,1,93,281.5Zm2.383-14.769,9.444,9.362,9.366-9.362Zm6.734,8.572-6.642,6.642H114.18l-6.594-6.6a1.992,1.992,0,0,1-.141.174q-1.011,1.013-2.025,2.025a.7.7,0,0,1-1.093,0q-.231-.224-.459-.455C103.272,276.49,102.682,275.885,102.116,275.306ZM94.4,267.714v13.215l6.636-6.634Zm14.288,6.606,6.553,6.551v-13.1Z" transform="translate(-93 -265.334)" fill="#255aa8"/>
</svg>
