<svg xmlns="http://www.w3.org/2000/svg" width="32.479" height="30.939" viewBox="0 0 32.479 30.939">
  <g id="Group_906" data-name="Group 906" transform="translate(-8289.937 1839.251)">
    <g id="Group_901" data-name="Group 901" transform="translate(110.176)">
      <path id="Path_4040" data-name="Path 4040" d="M42.2,49.874a.719.719,0,0,1,.684-.327c1.041.01,2.082,0,3.123,0h.367c.01-.139.02-.248.02-.357q.059-8.775.119-17.541c0-.674.149-.813.833-.813q6.1,0,12.206.01a.424.424,0,0,0,.466-.317A7.354,7.354,0,1,1,68.08,40.573c-.526.089-1.071.109-1.656.169V52.274a4.039,4.039,0,0,1-3.332,4.056,6.824,6.824,0,0,1-1.269.079c-5.146,0-10.3.01-15.449,0a4.1,4.1,0,0,1-4.105-3.4,1.642,1.642,0,0,0-.059-.208C42.2,51.838,42.2,50.856,42.2,49.874Zm5.235-.317H58.68c.456.01.615.159.615.625v2.033a3.307,3.307,0,0,0,.04.625,3.034,3.034,0,0,0,6.029-.516c.01-3.827,0-7.655.01-11.482,0-.228-.079-.288-.288-.337A7.168,7.168,0,0,1,60.8,37.549a.444.444,0,0,0-.436-.208c-1.636.01-3.262,0-4.9,0a2.594,2.594,0,0,1-.278,0,.526.526,0,0,1-.506-.535.519.519,0,0,1,.5-.506,2.592,2.592,0,0,1,.278,0h4.621a7.459,7.459,0,0,1-.486-4.373H47.554Q47.495,40.7,47.435,49.557Zm25.692-16.2a6.311,6.311,0,1,0-6.306,6.316A6.3,6.3,0,0,0,73.127,33.355ZM43.251,50.6c0,.625-.02,1.239,0,1.844A3,3,0,0,0,46.3,55.368c4.343.01,8.7,0,13.039,0,.079,0,.149-.02.248-.03a4.186,4.186,0,0,1-1.329-3.282V50.588C53.236,50.6,48.258,50.6,43.251,50.6Z" transform="translate(8137.812 -1864.975)" fill="#255aa8" stroke="#255aa8" stroke-width="0.5"/>
      <path id="Path_4044" data-name="Path 4044" d="M172.013,222.391h-3.342a.523.523,0,0,1-.595-.466c-.03-.337.2-.565.585-.565.635-.01,1.269,0,1.9,0h4.65a2.592,2.592,0,0,1,.278,0,.516.516,0,0,1-.02,1.031c-.625.01-1.249,0-1.874,0Z" transform="translate(8024.419 -2040.982)" fill="#255aa8" stroke="#255aa8" stroke-width="0.5"/>
      <path id="Path_4045" data-name="Path 4045" d="M171.988,175.61h3.371a.5.5,0,0,1,.555.5.513.513,0,0,1-.535.526,2.6,2.6,0,0,1-.278,0h-6.525a.524.524,0,0,1-.575-.387.509.509,0,0,1,.555-.645C169.707,175.6,170.847,175.61,171.988,175.61Z" transform="translate(8024.503 -1999.764)" fill="#255aa8" stroke="#255aa8" stroke-width="0.5"/>
      <path id="Path_4041" data-name="Path 4041" d="M126.312,120.913a1.657,1.657,0,1,1-1.636-1.616A1.641,1.641,0,0,1,126.312,120.913Zm-1.656.545a.563.563,0,1,0-.615-.565A.584.584,0,0,0,124.656,121.458Z" transform="translate(8065.023 -1949.043)" fill="#255aa8" stroke="#255aa8" stroke-width="0.5"/>
      <path id="Path_4042" data-name="Path 4042" d="M126.312,166.3a1.657,1.657,0,1,1-1.646-1.6A1.64,1.64,0,0,1,126.312,166.3Zm-1.656.565a.591.591,0,0,0,.625-.555.611.611,0,0,0-.615-.575.6.6,0,0,0-.625.555A.591.591,0,0,0,124.656,166.862Z" transform="translate(8065.023 -1989.944)" fill="#255aa8" stroke="#255aa8" stroke-width="0.5"/>
      <path id="Path_4043" data-name="Path 4043" d="M126.311,211.805a1.657,1.657,0,1,1-1.636-1.606A1.606,1.606,0,0,1,126.311,211.805Zm-1.646.545a.584.584,0,0,0,.615-.565.612.612,0,0,0-.625-.565.6.6,0,0,0-.615.575A.591.591,0,0,0,124.665,212.351Z" transform="translate(8065.024 -2030.932)" fill="#255aa8" stroke="#255aa8" stroke-width="0.5"/>
    </g>
    <g id="Layer_2" data-name="Layer 2" transform="translate(8311.017 -1835.578)">
      <g id="Layer_1" data-name="Layer 1" transform="translate(0)">
        <path id="Path_4039" data-name="Path 4039" d="M7.5,3.531v.44c0,.026-.01.052-.014.078-.022.157-.033.316-.068.47A3.685,3.685,0,0,1,5.713,6.94a3.617,3.617,0,0,1-2.748.477A3.633,3.633,0,0,1,.885,6.166,3.658,3.658,0,0,1,.018,3.371,3.6,3.6,0,0,1,.843,1.387,3.7,3.7,0,0,1,3.1.059C3.244.033,3.387.019,3.529,0h.44l.159.018A3.679,3.679,0,0,1,5.817.627a3.71,3.71,0,0,1,1.626,2.48C7.469,3.246,7.481,3.39,7.5,3.531ZM1.418,1.4A3.326,3.326,0,0,0,.445,3.527H1.773c0-.071.006-.139.012-.206.016-.18.022-.362.055-.538.058-.316.134-.628.2-.943a.077.077,0,0,0-.018-.064C1.824,1.652,1.624,1.529,1.418,1.4Zm4.66,0c-.2.122-.387.242-.579.356a.069.069,0,0,0-.038.1,5.962,5.962,0,0,1,.24,1.3c.009.123.017.247.026.37h1.32A3.264,3.264,0,0,0,6.078,1.4ZM1.767,3.975H.445A3.314,3.314,0,0,0,1.419,6.1c.2-.121.385-.242.577-.356a.073.073,0,0,0,.04-.1,5.38,5.38,0,0,1-.21-1.008C1.8,4.416,1.787,4.2,1.767,3.975Zm3.958,0c0,.063-.006.121-.012.179-.021.218-.03.439-.068.655-.05.283-.122.561-.186.842-.007.03-.025.055.016.08.2.12.4.244.6.369a3.32,3.32,0,0,0,.973-2.126ZM2.217,3.527H3.524V2.188A3.8,3.8,0,0,1,2.463,1.97,5.968,5.968,0,0,0,2.217,3.527ZM3.973,2.19V3.526H5.282a5.939,5.939,0,0,0-.248-1.557,3.783,3.783,0,0,1-1.061.222ZM3.527,3.975H2.217a5.935,5.935,0,0,0,.248,1.559,3.831,3.831,0,0,1,1.063-.222Zm.445,1.338a3.817,3.817,0,0,1,1.063.22,5.973,5.973,0,0,0,.246-1.558H3.971Zm-1.358.636a2.38,2.38,0,0,0,.583.875.835.835,0,0,0,.327.194V5.754a3.2,3.2,0,0,0-.911.194ZM3.973,7.03a1.945,1.945,0,0,0,.915-1.081,3.184,3.184,0,0,0-.915-.195ZM3.525,1.748V.474A1.944,1.944,0,0,0,2.61,1.553a3.188,3.188,0,0,0,.915.195Zm1.364-.195A1.946,1.946,0,0,0,3.973.475V1.748a3.214,3.214,0,0,0,.915-.195ZM1.767,1.1l.426.269L2.606.645a3.265,3.265,0,0,0-.839.458Zm3.539.27L5.731,1.1A3.241,3.241,0,0,0,4.894.647ZM2.6,6.855l-.41-.725L1.768,6.4A3.229,3.229,0,0,0,2.6,6.855Zm2.7-.725-.411.726A3.217,3.217,0,0,0,5.73,6.4Z" transform="translate(0.001)" fill="#255aa8" stroke="#255aa8" stroke-width="0.25"/>
      </g>
    </g>
  </g>
</svg>
