<svg xmlns="http://www.w3.org/2000/svg" width="23.645" height="17.731" viewBox="0 0 23.645 17.731">
  <g id="id-card" transform="translate(-42 -228.925)">
    <path id="Path_3939" data-name="Path 3939" d="M42,244.3V231.279c.014-.051.037-.1.046-.148a2.708,2.708,0,0,1,2.651-2.2q9.123-.007,18.251,0a2.622,2.622,0,0,1,2.161,1.094,3.3,3.3,0,0,1,.536,1.256V244.3c-.014.051-.037.1-.046.148a2.7,2.7,0,0,1-2.651,2.2q-9.123.007-18.251,0a2.634,2.634,0,0,1-2.161-1.094A3.3,3.3,0,0,1,42,244.3Zm11.822.877H62.8a1.245,1.245,0,0,0,1.362-1.358V231.769a1.245,1.245,0,0,0-1.376-1.367H44.854a1.247,1.247,0,0,0-1.376,1.372V243.8a1.25,1.25,0,0,0,1.39,1.381Q49.343,245.177,53.822,245.179Z" transform="translate(0)" fill="#255aa8"/>
    <path id="Path_3940" data-name="Path 3940" d="M110.507,442.181c.674,0,1.358-.046,2.027.009a2.677,2.677,0,0,1,2.392,2.591c0,.2.009.4,0,.6a.737.737,0,0,1-1.473-.009c0-.152,0-.309,0-.462a1.215,1.215,0,0,0-1.215-1.27c-1.159-.018-2.323-.018-3.482,0a1.215,1.215,0,0,0-1.21,1.275c0,.162,0,.323,0,.485a.751.751,0,0,1-.7.7.722.722,0,0,1-.757-.6,2.907,2.907,0,0,1,.891-2.642,2.711,2.711,0,0,1,1.833-.7c.568,0,1.136,0,1.709,0C110.507,442.162,110.507,442.172,110.507,442.181Z" transform="translate(-61.104 -203.383)" fill="#255aa8"/>
    <path id="Path_3941" data-name="Path 3941" d="M153.712,316.575a2.457,2.457,0,1,1-2.452-2.475A2.458,2.458,0,0,1,153.712,316.575Zm-1.478,0a.979.979,0,1,0-.988.974A.985.985,0,0,0,152.235,316.58Z" transform="translate(-101.867 -81.241)" fill="#255aa8"/>
    <path id="Path_3942" data-name="Path 3942" d="M344.227,326.378h-2.6a.743.743,0,1,1,0-1.478h5.255a.742.742,0,1,1,0,1.478Z" transform="translate(-285.001 -91.543)" fill="#255aa8"/>
    <path id="Path_3943" data-name="Path 3943" d="M344.056,411.611c-.9,0-1.8,0-2.7,0a.733.733,0,0,1-.711-.522.7.7,0,0,1,.268-.794,1,1,0,0,1,.494-.152q2.653-.014,5.3,0a.739.739,0,1,1,0,1.473C345.825,411.615,344.943,411.611,344.056,411.611Z" transform="translate(-284.826 -172.841)" fill="#255aa8"/>
    <path id="Path_3944" data-name="Path 3944" d="M344.2,495.628c.905,0,1.815,0,2.72,0a.722.722,0,0,1,.7.559.708.708,0,0,1-.351.8.961.961,0,0,1-.439.106c-1.759.009-3.519,0-5.278,0a.754.754,0,0,1-.79-.6.721.721,0,0,1,.466-.827,1.171,1.171,0,0,1,.36-.046c.873,0,1.741,0,2.609,0Z" transform="translate(-284.96 -254.384)" fill="#255aa8"/>
  </g>
</svg>
