<svg xmlns="http://www.w3.org/2000/svg" width="23.807" height="27.717" viewBox="0 0 23.807 27.717">
  <g id="mobile-payment_1_" data-name="mobile-payment (1)" transform="translate(-381.711 -352.4)">
    <path id="Path_4073" data-name="Path 4073" d="M384.734,371.053c-.311-.3-.591-.562-.858-.828a2.338,2.338,0,0,1,1.139-4.007c.03-.007.052-.007.081-.015.007,0,.007-.015.037-.044-.429-.429-.858-.858-1.286-1.279a2.287,2.287,0,0,1-.695-1.353,2.328,2.328,0,0,1,1.427-2.5c.059-.022.118-.052.2-.089-.081-.089-.148-.163-.222-.229-.747-.747-1.508-1.471-2.225-2.248a2.31,2.31,0,0,1,1.109-3.807,2.34,2.34,0,0,1,2.321.651v-.473a8.731,8.731,0,0,1,.059-1.323,1.386,1.386,0,0,1,1.346-1.109h13.123a1.482,1.482,0,0,1,1.678,1.686v8.258a3.53,3.53,0,0,1,1.567-.872,8.729,8.729,0,0,1,1.309-.192c.466-.037.673.192.673.665v17.411a1.693,1.693,0,0,1-.007.274.551.551,0,0,1-1.094,0,2.078,2.078,0,0,1-.007-.3V362.447a2.37,2.37,0,0,0-2.211,1.575,4.226,4.226,0,0,0-.222,1.242c-.03,1.442-.022,2.883-.007,4.325a.876.876,0,0,1-.4.791c-.621.444-1.227.917-1.848,1.375a3.075,3.075,0,0,0-1.316,2.61c.007,1.686,0,3.364,0,5.05,0,.51-.192.7-.7.7H387.3a1.442,1.442,0,0,1-1.545-1.538,3.27,3.27,0,0,0-.044-1.146c-.133-.325-.5-.554-.769-.821l-1.508-1.508a2.342,2.342,0,0,1,1.153-4.022C384.616,371.09,384.638,371.075,384.734,371.053Zm16.117-14.417h-13.98v4.591a.235.235,0,0,0,.044.148c.362.362.732.717,1.116,1.079A5.887,5.887,0,1,1,389.2,367.7c-.3.111-.6.214-.909.333.059.067.118.133.185.2.392.392.791.776,1.176,1.183a2.324,2.324,0,0,1-1.109,3.859c-.081.022-.163.044-.333.1.392.37.747.68,1.072,1.02a.539.539,0,0,0,.436.207q3.649-.011,7.3-.007c.089,0,.177-.007.259-.007a.217.217,0,0,0,.022-.067c0-.066.007-.126.007-.192a4.092,4.092,0,0,1,1.7-3.386c.547-.414,1.087-.828,1.641-1.227a.474.474,0,0,0,.214-.436q-.011-6.166-.007-12.339Zm-7.09,2.528a4.775,4.775,0,0,0-4.709,3.941.513.513,0,0,0,.177.562,3.586,3.586,0,0,1,.414.407,2.269,2.269,0,0,1,.436,2.565.323.323,0,0,0,.067.407,4.687,4.687,0,0,0,4.222,1.6,4.761,4.761,0,0,0-.606-9.485Zm7.09-3.667v-1.427c0-.488-.074-.562-.562-.562H387.263c-.274.015-.384.118-.392.392-.007.348,0,.7,0,1.05v.54C391.543,355.5,396.179,355.5,400.851,355.5Zm-13.966,22.66c-.007.074-.007.148-.007.222-.007.6.037.643.643.643h9.766v-3.312h-7.423A2.384,2.384,0,0,1,386.886,378.158Zm-1.486-16.2a1.2,1.2,0,0,0-1.065.725,1.213,1.213,0,0,0,.274,1.375c.813.821,1.626,1.641,2.447,2.447a1.219,1.219,0,1,0,1.73-1.715c-.821-.835-1.656-1.663-2.484-2.491A1.3,1.3,0,0,0,385.4,361.959Zm.037,5.331a1.218,1.218,0,0,0-.828,2.1c.813.821,1.626,1.641,2.447,2.447a1.219,1.219,0,1,0,1.737-1.708c-.821-.835-1.656-1.663-2.484-2.492A1.2,1.2,0,0,0,385.436,367.29Zm-.444,4.88a1.216,1.216,0,0,0-.85,2.07q1.231,1.253,2.484,2.484a1.216,1.216,0,1,0,1.723-1.715c-.821-.835-1.656-1.663-2.484-2.492A1.21,1.21,0,0,0,384.993,372.169Zm.769-11.866V357a.3.3,0,0,0-.081-.192c-.274-.281-.547-.577-.85-.835a1.2,1.2,0,0,0-1.656.074,1.161,1.161,0,0,0-.059,1.627C383.965,358.559,384.852,359.4,385.762,360.3Z" fill="#255aa8"/>
    <path id="Path_4074" data-name="Path 4074" d="M515.247,453.948a6.208,6.208,0,0,1,.673.081,1.384,1.384,0,0,1,1.05,1.36.544.544,0,0,1-.481.577.55.55,0,0,1-.614-.473c-.081-.4-.1-.414-.5-.414-.377,0-.761-.007-1.139,0a.774.774,0,1,0,0,1.545,8.684,8.684,0,0,1,1.242.052,1.878,1.878,0,0,1,1.545,1.841,1.908,1.908,0,0,1-1.523,1.893c-.081.015-.155.037-.237.059-.067.658-.222.88-.584.872s-.5-.214-.569-.887H513.7a1.421,1.421,0,0,1-1.39-1.383.584.584,0,0,1,.525-.658c.311-.022.54.2.577.577a.346.346,0,0,0,.392.362c.429-.007.85.007,1.279,0a.791.791,0,0,0,.813-.806.8.8,0,0,0-.821-.8,10.109,10.109,0,0,1-1.161-.03,1.879,1.879,0,0,1-.067-3.711c.081-.015.163-.03.17-.03a6.191,6.191,0,0,1,.333-.762.472.472,0,0,1,.347-.118C515.062,453.091,515.217,453.342,515.247,453.948Z" transform="translate(-120.931 -93.253)" fill="#255aa8"/>
    <path id="Path_4075" data-name="Path 4075" d="M521.85,683.54h-1.331a.557.557,0,1,1-.015-1.109c.909-.007,1.811-.007,2.721,0a.553.553,0,0,1,.606.547.561.561,0,0,1-.621.562Z" transform="translate(-127.97 -305.626)" fill="#255aa8"/>
  </g>
</svg>
