<svg id="unlock" xmlns="http://www.w3.org/2000/svg" width="24.041" height="24.994" viewBox="0 0 24.041 24.994">
  <path id="Path_3454" data-name="Path 3454" d="M9.656,7.529l-.317,0-.309,0h-.3l-.3,0a3.649,3.649,0,0,0-1.214.226,3.508,3.508,0,0,0-1.031.6,3.612,3.612,0,0,0-.78.917,3.934,3.934,0,0,0-.464,1.181q-.023.105-.04.213t-.028.217q-.011.109-.017.219t-.006.218q0,1.23,0,2.461t0,2.463q0,1.231,0,2.463t0,2.461a4.1,4.1,0,0,0,.277,1.5,3.645,3.645,0,0,0,.767,1.2,3.494,3.494,0,0,0,1.159.8,3.716,3.716,0,0,0,1.453.287l2.99-.008,2.984-.011,2.978-.014,2.972-.017a3.7,3.7,0,0,0,1.435-.3A3.486,3.486,0,0,0,23,23.814a3.632,3.632,0,0,0,.757-1.192,4.078,4.078,0,0,0,.274-1.49q0-1.228,0-2.455t0-2.453q0-1.226,0-2.453t0-2.455a4.141,4.141,0,0,0-.277-1.5A3.626,3.626,0,0,0,23,8.624a3.454,3.454,0,0,0-1.147-.79,3.7,3.7,0,0,0-1.443-.287L18.421,7.54l-1.993,0-2,0-2,0h-.361q0-.164,0-.322t0-.313c0-.1,0-.205,0-.307s0-.2,0-.3a7.663,7.663,0,0,0-.246-1.774,6,6,0,0,0-.637-1.528,5.709,5.709,0,0,0-1.03-1.271,6.757,6.757,0,0,0-1.425-1A5.709,5.709,0,0,0,5.921.026a5.883,5.883,0,0,0-2.68.711A6.085,6.085,0,0,0,.09,5.385c-.036.291-.059.584-.072.878S0,6.852,0,7.147s.006.591.012.887.013.592.017.887a.987.987,0,0,0,.107.435A1.112,1.112,0,0,0,.412,9.7,1.265,1.265,0,0,0,.8,9.927,1.284,1.284,0,0,0,1.265,10a1.173,1.173,0,0,0,.436-.1,1.19,1.19,0,0,0,.613-.6,1.178,1.178,0,0,0,.1-.443c.006-.211.009-.423.01-.634s0-.424,0-.637,0-.425,0-.638,0-.426.006-.639a4.151,4.151,0,0,1,.185-1.2,3.8,3.8,0,0,1,.5-1.037,3.588,3.588,0,0,1,1.8-1.359,3.462,3.462,0,0,1,1.7-.142,3.572,3.572,0,0,1,1.506.636A3.719,3.719,0,0,1,9.216,4.46a3.787,3.787,0,0,1,.447,1.7c0,.111,0,.222,0,.334s0,.224,0,.338,0,.228,0,.345S9.656,7.408,9.656,7.529ZM14.464,22.46l-1.461,0-1.464,0-1.466,0-1.466,0a1.675,1.675,0,0,1-.576-.09,1.093,1.093,0,0,1-.421-.268,1.145,1.145,0,0,1-.258-.435,1.845,1.845,0,0,1-.088-.592V11.4a1.841,1.841,0,0,1,.089-.6,1.142,1.142,0,0,1,.261-.435,1.1,1.1,0,0,1,.424-.267,1.7,1.7,0,0,1,.577-.09h2.736l2.23,0,2.228,0,2.225,0,2.22,0a1.949,1.949,0,0,1,.622.09,1.092,1.092,0,0,1,.441.27,1.132,1.132,0,0,1,.263.454,2.1,2.1,0,0,1,.087.64v9.5a2.106,2.106,0,0,1-.087.64,1.142,1.142,0,0,1-.263.455,1.106,1.106,0,0,1-.441.274,1.969,1.969,0,0,1-.622.1l-1.448,0-1.447,0-1.447,0Z" fill="#255aa8"/>
  <path id="Path_3455" data-name="Path 3455" d="M3.606,5.532V5.477A1.77,1.77,0,0,1,3.6,5.12a1.214,1.214,0,0,1,.069-.32,1.239,1.239,0,0,1,.16-.3,1.847,1.847,0,0,1,.261-.287A2.213,2.213,0,0,0,4.643,3.4a2.446,2.446,0,0,0,.169-.954,2.593,2.593,0,0,0-.2-.958A2.48,2.48,0,0,0,4.041.668,2.4,2.4,0,0,0,3.2.139a2.318,2.318,0,0,0-1.855.12A2.452,2.452,0,0,0,.563.895,2.479,2.479,0,0,0,.1,1.78a2.569,2.569,0,0,0-.086.97,2.52,2.52,0,0,0,.281.928,2.387,2.387,0,0,0,.637.761,1.054,1.054,0,0,1,.13.121.579.579,0,0,1,.087.127.516.516,0,0,1,.046.145.778.778,0,0,1,.007.174c-.006.093-.009.187-.011.282s0,.189,0,.284,0,.19,0,.285,0,.191,0,.286a1.58,1.58,0,0,0,.1.532,1.281,1.281,0,0,0,.256.417,1.127,1.127,0,0,0,.383.271,1.168,1.168,0,0,0,.48.093,1.184,1.184,0,0,0,.477-.1,1.123,1.123,0,0,0,.375-.278,1.275,1.275,0,0,0,.246-.422A1.6,1.6,0,0,0,3.6,6.115q0-.073,0-.146t0-.146q0-.073,0-.146T3.606,5.532Z" transform="translate(12.067 12.512)" fill="#255aa8"/>
</svg>
