<svg xmlns="http://www.w3.org/2000/svg" width="25.645" height="25.673" viewBox="0 0 25.645 25.673">
  <g id="phone-call" transform="translate(-109.063 -231.9)">
    <path id="Path_3954" data-name="Path 3954" d="M308.412,231.9c.577.149,1.167.278,1.737.455a13.455,13.455,0,0,1,4.979,2.795,13.782,13.782,0,0,1,3.582,4.884,14.413,14.413,0,0,1,.936,3.08c.014.054.034.109.047.163v.149c-.007.007-.014.007-.02.02-.156.427-.407.638-.739.617-.407-.027-.651-.258-.739-.746a12.349,12.349,0,0,0-7.516-9.212,24.66,24.66,0,0,0-2.415-.712c-.461-.129-.706-.319-.746-.665s.122-.6.549-.828Z" transform="translate(-184.986 0)" fill="#255aa8"/>
    <path id="Path_3955" data-name="Path 3955" d="M117.056,262.861a16.8,16.8,0,0,0,6.94,6.912,2.084,2.084,0,0,1,.224-.312c.577-.57,1.14-1.153,1.75-1.689a2.272,2.272,0,0,1,3.066.041c1.187,1.133,2.354,2.3,3.48,3.5a2.3,2.3,0,0,1,.081,3.08,29,29,0,0,1-2.422,2.5,3.975,3.975,0,0,1-3.154.909,14.922,14.922,0,0,1-5.949-2.1,24.624,24.624,0,0,1-6.146-4.816,24.15,24.15,0,0,1-5.115-7.95,10.327,10.327,0,0,1-.746-3.405,4.083,4.083,0,0,1,1.126-3.134c.678-.692,1.33-1.411,2.062-2.049a2.351,2.351,0,0,1,3.439.048c1.153,1.079,2.252,2.211,3.331,3.365a2.275,2.275,0,0,1,.007,3.107c-.57.645-1.194,1.235-1.8,1.852C117.179,262.759,117.118,262.806,117.056,262.861Zm-6.539-3.426c.027.292.047.583.081.868a3.473,3.473,0,0,0,.068.366,16.224,16.224,0,0,0,2.076,4.932,24.532,24.532,0,0,0,10.2,9.416,11.882,11.882,0,0,0,4.179,1.309,2.8,2.8,0,0,0,2.415-.828c.543-.57,1.1-1.119,1.648-1.682.068-.075.136-.149.2-.224a.989.989,0,0,0-.027-1.425c-.455-.488-.936-.957-1.4-1.431-.583-.583-1.167-1.174-1.757-1.75a.957.957,0,0,0-1.411-.034,2.838,2.838,0,0,0-.251.244c-.577.57-1.14,1.146-1.723,1.716a1.1,1.1,0,0,1-1.377.231c-.353-.176-.7-.353-1.038-.556a18.047,18.047,0,0,1-4.016-3.331,14.356,14.356,0,0,1-2.652-3.772,1.222,1.222,0,0,1,.326-1.7c.6-.583,1.2-1.16,1.777-1.764a.95.95,0,0,0,.007-1.445c-.054-.061-.115-.122-.17-.183-.943-.943-1.886-1.893-2.836-2.836a1.078,1.078,0,0,0-1.771,0c-.543.536-1.065,1.085-1.615,1.608A2.829,2.829,0,0,0,110.517,259.435Z" transform="translate(0 -20.249)" fill="#255aa8"/>
    <path id="Path_3956" data-name="Path 3956" d="M305.193,300.6a12.183,12.183,0,0,1,1.214.319,8.343,8.343,0,0,1,5.5,5.983c.048.17.081.339.115.516a.739.739,0,0,1-.536.889.729.729,0,0,1-.875-.522c-.122-.407-.183-.834-.339-1.228a6.88,6.88,0,0,0-5.3-4.5.742.742,0,0,1-.644-.9A.794.794,0,0,1,305.193,300.6Z" transform="translate(-182.005 -64.04)" fill="#255aa8"/>
  </g>
</svg>
