<svg xmlns="http://www.w3.org/2000/svg" width="23.645" height="27" viewBox="0 0 23.645 27">
  <g id="password_12" data-name="password 12" transform="translate(-118.2 -216.649)">
    <path id="Path_3934" data-name="Path 3934" d="M121.964,243.649a8.689,8.689,0,0,1-1.367-.442,3.993,3.993,0,0,1-2.364-3.652c-.046-2.972-.04-5.944-.007-8.909a4.182,4.182,0,0,1,4.068-4.075c.456-.013.911,0,1.4,0v-3.592a6.251,6.251,0,0,1,5.065-6.2,6.347,6.347,0,0,1,7.284,4.2,6.2,6.2,0,0,1,.3,1.994v3.592h1.162a4.226,4.226,0,0,1,4.306,4.048c.053,1.354.02,2.708.013,4.061a1.054,1.054,0,1,1-2.107-.02c-.007-1.268,0-2.529-.007-3.8a2.08,2.08,0,0,0-1.559-2.093,2.582,2.582,0,0,0-.674-.086q-7.469-.01-14.945,0a2.111,2.111,0,0,0-2.219,2.219q-.01,4.22,0,8.433a2.108,2.108,0,0,0,2.206,2.206q7.489.01,14.971,0a2.116,2.116,0,0,0,2.226-2.113,1.045,1.045,0,0,1,.786-1,.986.986,0,0,1,1.109.4,1.335,1.335,0,0,1,.2.66,4.218,4.218,0,0,1-3.54,4.114c-.066.013-.132.04-.2.053Q130.041,243.653,121.964,243.649Zm3.89-17.1h8.38c0-1.36.033-2.7-.02-4.042a3.549,3.549,0,0,0-.357-1.334,4.215,4.215,0,0,0-4.6-2.338,3.993,3.993,0,0,0-3.375,3.493C125.755,223.712,125.854,225.126,125.854,226.545Z" fill="#255aa8"/>
    <path id="Path_3935" data-name="Path 3935" d="M194.2,478.128a1.05,1.05,0,1,1-1.07-1.037A1.054,1.054,0,0,1,194.2,478.128Z" transform="translate(-69.02 -243.242)" fill="#255aa8"/>
    <path id="Path_3936" data-name="Path 3936" d="M254,478.063a1.053,1.053,0,1,1-1.05-1.063A1.06,1.06,0,0,1,254,478.063Z" transform="translate(-124.867 -243.157)" fill="#255aa8"/>
    <path id="Path_3937" data-name="Path 3937" d="M313.906,478.057A1.053,1.053,0,1,1,312.849,477,1.056,1.056,0,0,1,313.906,478.057Z" transform="translate(-180.814 -243.157)" fill="#255aa8"/>
    <path id="Path_3938" data-name="Path 3938" d="M374.606,478.057A1.053,1.053,0,1,1,373.549,477,1.056,1.056,0,0,1,374.606,478.057Z" transform="translate(-237.505 -243.157)" fill="#255aa8"/>
  </g>
</svg>
