<svg xmlns="http://www.w3.org/2000/svg" width="26.64" height="30.938" viewBox="0 0 26.64 30.938">
  <g id="payments" transform="translate(-93.413 -62.95)">
    <path id="Path_3394" data-name="Path 3394" d="M118.583,74.221a2.721,2.721,0,0,0-2.614,2.467,13.034,13.034,0,0,0-.061,1.546c-.012,1.313-.012,2.614,0,3.927a.842.842,0,0,1-.356.724c-.712.528-1.411,1.055-2.123,1.583A3.357,3.357,0,0,0,112,87.317v5.535c0,.577-.209.785-.785.785H99.842a1.586,1.586,0,0,1-1.706-1.706,3.373,3.373,0,0,0-.049-1.227c-.147-.356-.552-.6-.847-.9-.54-.54-1.068-1.08-1.62-1.608a2.581,2.581,0,0,1,1.35-4.492c-.331-.331-.638-.65-.957-.957a2.485,2.485,0,0,1-.749-1.424A2.55,2.55,0,0,1,97.2,78.407c.074-.012.135-.037.27-.061-.307-.307-.589-.577-.871-.847-.2-.2-.393-.38-.577-.577a2.551,2.551,0,0,1,.871-4.259c.037-.012.074-.037.135-.061-.086-.086-.16-.172-.233-.245-.81-.822-1.657-1.62-2.442-2.467a2.562,2.562,0,0,1,1.215-4.21,2.478,2.478,0,0,1,2.283.479l.209.172a.344.344,0,0,0,.061-.012V64.906A1.6,1.6,0,0,1,99.842,63.2h14.335a1.6,1.6,0,0,1,1.731,1.718V74.1c.11-.086.184-.135.258-.2a4.671,4.671,0,0,1,3.044-.957.587.587,0,0,1,.589.577,1.981,1.981,0,0,1,0,.27v19c0,.552-.2.847-.6.847s-.614-.282-.614-.859V74.221Zm-7.83,13.341c.012-.061.025-.074.025-.1V87.28a4.526,4.526,0,0,1,1.89-3.768c.589-.442,1.166-.884,1.755-1.313a.55.55,0,0,0,.258-.5c-.012-4.517,0-9.033,0-13.55v-.307H99.339c0,1.522.025,3.031-.012,4.529a1.181,1.181,0,0,0,.454,1.068,10.108,10.108,0,0,1,.835.8,6.54,6.54,0,0,1,6.591-4.836A6.46,6.46,0,0,1,110.4,81.254a6.271,6.271,0,0,1-3.866,1.043,6.412,6.412,0,0,1-4.627-2.32c-.356.135-.687.245-1.055.38.515.5,1.019.982,1.5,1.485a2.557,2.557,0,0,1-1.031,4.21c-.135.049-.282.074-.454.123.086.086.147.16.221.233.307.307.626.614.908.945a.5.5,0,0,0,.43.2h8.039A2.463,2.463,0,0,0,110.753,87.562Zm1.4-11.684c-.037-.307-.049-.626-.1-.933a5.234,5.234,0,0,0-10.31.012.567.567,0,0,0,.2.614,3.711,3.711,0,0,1,.491.491,2.5,2.5,0,0,1,.454,2.749.409.409,0,0,0,.074.5,5.24,5.24,0,0,0,5.768,1.461A5.308,5.308,0,0,0,112.152,75.878Zm2.528-9.279V65.041c0-.54-.074-.614-.614-.614H100.161c-.822,0-.822,0-.822.822V66.6ZM102.628,88.79a2.618,2.618,0,0,1-3.265,2.688c0,.086-.012.16-.012.245-.012.663.037.712.7.712h10.715V88.8C108.028,88.79,105.328,88.79,102.628,88.79Zm-4.86-15.084a1.278,1.278,0,0,0-1.2.785,1.253,1.253,0,0,0,.27,1.485c.9.921,1.8,1.829,2.725,2.737a1.337,1.337,0,1,0,1.89-1.89c-.9-.921-1.816-1.829-2.725-2.737A1.324,1.324,0,0,0,97.768,73.706ZM96.43,81.045a2.284,2.284,0,0,0,.344.7c.933.982,1.89,1.951,2.872,2.884a1.326,1.326,0,0,0,1.878-1.866c-.945-.994-1.915-1.951-2.9-2.909a1.222,1.222,0,0,0-1.424-.184A1.417,1.417,0,0,0,96.43,81.045Zm.859,3.854a1.281,1.281,0,0,0-1.215.81,1.253,1.253,0,0,0,.27,1.461c.908.933,1.829,1.841,2.749,2.749a1.337,1.337,0,1,0,1.89-1.89c-.908-.933-1.829-1.841-2.749-2.749A1.38,1.38,0,0,0,97.289,84.9Zm.835-13.034v-.319c0-.761-.061-1.522.012-2.283a1.97,1.97,0,0,0-.847-1.976,3.14,3.14,0,0,0-.65-.43,1.318,1.318,0,0,0-1.534.552,1.284,1.284,0,0,0,.16,1.62c.908.933,1.829,1.841,2.749,2.749C98.038,71.828,98.063,71.828,98.124,71.865Z" transform="translate(0 0)" fill="#255aa8" stroke="#255aa8" stroke-width="0.5"/>
    <path id="Path_3395" data-name="Path 3395" d="M183.239,137.722c-.049.7-.221.957-.626.957s-.577-.258-.626-.97h-.466a1.554,1.554,0,0,1-1.51-1.534.643.643,0,0,1,.565-.712.614.614,0,0,1,.65.614.384.384,0,0,0,.454.405c.454-.012.908,0,1.375,0a.884.884,0,1,0-.012-1.767,11.007,11.007,0,0,1-1.276-.037A2.045,2.045,0,0,1,180,132.665a2.066,2.066,0,0,1,1.718-2.062c.086-.012.172-.037.258-.049.086-.724.245-.97.65-.957s.54.233.626.945a5.213,5.213,0,0,1,.749.1,1.5,1.5,0,0,1,1.129,1.51.617.617,0,0,1-.54.626.6.6,0,0,1-.65-.5c-.1-.466-.11-.466-.577-.466H182.11a.848.848,0,1,0,0,1.694,9.751,9.751,0,0,1,1.338.049,2.053,2.053,0,0,1,1.731,2.013,2.106,2.106,0,0,1-1.681,2.1C183.411,137.685,183.325,137.7,183.239,137.722Z" transform="translate(-75.726 -58.247)" fill="#255aa8" stroke="#255aa8" stroke-width="0.5"/>
    <path id="Path_3396" data-name="Path 3396" d="M187.148,282.715h-1.461a.613.613,0,1,1,.012-1.215h2.921a.623.623,0,0,1,.7.6c.012.368-.27.614-.712.614C188.117,282.727,187.639,282.715,187.148,282.715Z" transform="translate(-80.114 -191.507)" fill="#255aa8" stroke="#255aa8" stroke-width="0.5"/>
  </g>
</svg>
