<svg id="pdf" xmlns="http://www.w3.org/2000/svg" width="16.295" height="20.99" viewBox="0 0 16.295 20.99">
  <path id="Path_3975" data-name="Path 3975" d="M530.719,538.19a1.124,1.124,0,0,0-.221-.092.767.767,0,0,1-.5-.774V518.4a1.9,1.9,0,0,1,.074-.553.834.834,0,0,1,.848-.645H541.37a.821.821,0,0,1,.534.221c1.4,1.364,2.764,2.746,4.146,4.146a1.143,1.143,0,0,1,.221.479,1.5,1.5,0,0,1,.018.405v14.706c0,.571-.11.756-.663.977-.018.018-.055.018-.074.037C540.615,538.19,535.658,538.19,530.719,538.19Zm0-6.892h14.816v-9.03H541.2v-4.331H531.087c-.332,0-.369.037-.387.369v12.771A.759.759,0,0,1,530.719,531.3Zm0,.756v5.086c0,.295.018.332.332.332h14.172c.313,0,.332-.018.332-.332v-5.086Zm11.223-10.523h2.93l-2.93-2.93Z" transform="translate(-530 -517.2)" fill="#255aa8"/>
  <path id="Path_3976" data-name="Path 3976" d="M557.814,533.745c-.092.534-.2,1.087-.295,1.622a.416.416,0,0,0,.037.295,11.945,11.945,0,0,0,1.659,2.488.237.237,0,0,0,.258.092c.406-.037.829-.074,1.235-.092a2,2,0,0,1,.461.074.573.573,0,0,1,.405.811.991.991,0,0,1-1.345.627,5.4,5.4,0,0,1-.977-.608.4.4,0,0,0-.35-.092,19.118,19.118,0,0,0-2.856.921.587.587,0,0,0-.221.2c-.332.534-.627,1.069-.958,1.585a1.767,1.767,0,0,1-.313.332.651.651,0,0,1-.756.166.852.852,0,0,1-.516-.737,1.081,1.081,0,0,1,.405-.866,4.755,4.755,0,0,1,1.456-.958.772.772,0,0,0,.424-.442,26.08,26.08,0,0,0,1.2-3.428.6.6,0,0,0-.018-.313,4.739,4.739,0,0,1-.461-1.659,1.7,1.7,0,0,1,.074-.534.709.709,0,0,1,.774-.534c.2,0,.534.368.59.645a2.739,2.739,0,0,1,.037.387C557.8,533.745,557.8,533.745,557.814,533.745Zm.756,4.662c-.442-.645-.885-1.29-1.327-1.917-.313.866-.627,1.751-.921,2.617C557.077,538.868,557.833,538.647,558.57,538.407Zm-4.5,3.243a3.8,3.8,0,0,0,.921-1.216,3.012,3.012,0,0,0-1,.774C553.871,541.374,553.889,541.466,554.073,541.651Zm2.967-8.293a.8.8,0,0,0,.037,1.124A1.118,1.118,0,0,0,557.04,533.358Zm2.93,5.436c.24.221.424.405.756.313a.417.417,0,0,0,.313-.313Z" transform="translate(-548.987 -529.838)" fill="#255aa8"/>
  <path id="Path_3977" data-name="Path 3977" d="M566.5,607.049V603.4a5.174,5.174,0,0,1,1.99.2,1.551,1.551,0,0,1,.885,1.161,2.194,2.194,0,0,1-.295,1.659,1.4,1.4,0,0,1-1.179.627C567.458,607.067,567,607.049,566.5,607.049Zm.59-.442c.276,0,.534.018.792,0a.864.864,0,0,0,.792-.663,2.261,2.261,0,0,0,.074-1.216.987.987,0,0,0-.424-.645,2.062,2.062,0,0,0-1.235-.221Z" transform="translate(-559.774 -587.515)" fill="#255aa8"/>
  <path id="Path_3978" data-name="Path 3978" d="M550.771,607.1H550.2v-3.63a4.963,4.963,0,0,1,1.566.111,1.07,1.07,0,0,1,.7,1.235,1.137,1.137,0,0,1-1.032.958c-.221.018-.442.018-.682.037C550.771,606.233,550.771,606.657,550.771,607.1Zm0-3.17v1.437h.553a.58.58,0,0,0,.59-.5c.111-.479-.092-.866-.5-.921A2.494,2.494,0,0,0,550.771,603.929Z" transform="translate(-546.477 -587.565)" fill="#255aa8"/>
  <path id="Path_3979" data-name="Path 3979" d="M587.2,603.5h2.248v.442H587.79v1.143h1.493v.406H587.79v1.64h-.59Z" transform="translate(-576.659 -587.596)" fill="#255aa8"/>
</svg>
