<svg xmlns="http://www.w3.org/2000/svg" width="30.676" height="19.496" viewBox="0 0 30.676 19.496">
  <g id="transaction" transform="translate(-165.824 -337.513)">
    <path id="Path_3456" data-name="Path 3456" d="M234.063,343.077c-1.129-1.118-2.154-2.142-3.178-3.167a1.393,1.393,0,0,1,.757-2.375,1.293,1.293,0,0,1,1.188.4q2.777,2.759,5.542,5.542a1.319,1.319,0,0,1,.314,1.525,1.342,1.342,0,0,1-1.339.862H215.132a1.394,1.394,0,1,1,.07-2.783h18.861Z" transform="translate(-42.302)" fill="#255aa8"/>
    <path id="Path_3457" data-name="Path 3457" d="M170.618,436.068c.163.175.256.279.361.384.931.931,1.874,1.863,2.794,2.806a1.383,1.383,0,0,1-1.921,1.991c-1.886-1.863-3.761-3.749-5.635-5.635a1.254,1.254,0,0,1-.256-1.49,1.348,1.348,0,0,1,1.269-.838h22.039a2.635,2.635,0,0,1,.524.023,1.4,1.4,0,0,1-.151,2.771c-.14.012-.291,0-.431,0H171.223C171.037,436.068,170.874,436.068,170.618,436.068Z" transform="translate(0 -84.621)" fill="#255aa8"/>
  </g>
</svg>
