<svg xmlns="http://www.w3.org/2000/svg" width="32.479" height="30.939" viewBox="0 0 32.479 30.939">
  <g id="Group_905" data-name="Group 905" transform="translate(-8253.762 1839.251)">
    <g id="Group_900" data-name="Group 900" transform="translate(74)">
      <path id="Path_4040" data-name="Path 4040" d="M42.2,49.874a.719.719,0,0,1,.684-.327c1.041.01,2.082,0,3.123,0h.367c.01-.139.02-.248.02-.357q.059-8.775.119-17.541c0-.674.149-.813.833-.813q6.1,0,12.206.01a.424.424,0,0,0,.466-.317A7.354,7.354,0,1,1,68.08,40.573c-.526.089-1.071.109-1.656.169V52.274a4.039,4.039,0,0,1-3.332,4.056,6.824,6.824,0,0,1-1.269.079c-5.146,0-10.3.01-15.449,0a4.1,4.1,0,0,1-4.105-3.4,1.642,1.642,0,0,0-.059-.208C42.2,51.838,42.2,50.856,42.2,49.874Zm5.235-.317H58.68c.456.01.615.159.615.625v2.033a3.307,3.307,0,0,0,.04.625,3.034,3.034,0,0,0,6.029-.516c.01-3.827,0-7.655.01-11.482,0-.228-.079-.288-.288-.337A7.168,7.168,0,0,1,60.8,37.549a.444.444,0,0,0-.436-.208c-1.636.01-3.262,0-4.9,0a2.594,2.594,0,0,1-.278,0,.526.526,0,0,1-.506-.535.519.519,0,0,1,.5-.506,2.592,2.592,0,0,1,.278,0h4.621a7.459,7.459,0,0,1-.486-4.373H47.554Q47.495,40.7,47.435,49.557Zm25.692-16.2a6.311,6.311,0,1,0-6.306,6.316A6.3,6.3,0,0,0,73.127,33.355ZM43.251,50.6c0,.625-.02,1.239,0,1.844A3,3,0,0,0,46.3,55.368c4.343.01,8.7,0,13.039,0,.079,0,.149-.02.248-.03a4.186,4.186,0,0,1-1.329-3.282V50.588C53.236,50.6,48.258,50.6,43.251,50.6Z" transform="translate(8137.812 -1864.975)" fill="#255aa8" stroke="#255aa8" stroke-width="0.5"/>
      <path id="Path_4044" data-name="Path 4044" d="M172.013,222.391h-3.342a.523.523,0,0,1-.595-.466c-.03-.337.2-.565.585-.565.635-.01,1.269,0,1.9,0h4.65a2.592,2.592,0,0,1,.278,0,.516.516,0,0,1-.02,1.031c-.625.01-1.249,0-1.874,0Z" transform="translate(8024.419 -2040.982)" fill="#255aa8" stroke="#255aa8" stroke-width="0.5"/>
      <path id="Path_4045" data-name="Path 4045" d="M171.988,175.61h3.371a.5.5,0,0,1,.555.5.513.513,0,0,1-.535.526,2.6,2.6,0,0,1-.278,0h-6.525a.524.524,0,0,1-.575-.387.509.509,0,0,1,.555-.645C169.707,175.6,170.847,175.61,171.988,175.61Z" transform="translate(8024.503 -1999.764)" fill="#255aa8" stroke="#255aa8" stroke-width="0.5"/>
      <path id="Path_4041" data-name="Path 4041" d="M126.312,120.913a1.657,1.657,0,1,1-1.636-1.616A1.641,1.641,0,0,1,126.312,120.913Zm-1.656.545a.563.563,0,1,0-.615-.565A.584.584,0,0,0,124.656,121.458Z" transform="translate(8065.023 -1949.043)" fill="#255aa8" stroke="#255aa8" stroke-width="0.5"/>
      <path id="Path_4042" data-name="Path 4042" d="M126.312,166.3a1.657,1.657,0,1,1-1.646-1.6A1.64,1.64,0,0,1,126.312,166.3Zm-1.656.565a.591.591,0,0,0,.625-.555.611.611,0,0,0-.615-.575.6.6,0,0,0-.625.555A.591.591,0,0,0,124.656,166.862Z" transform="translate(8065.023 -1989.944)" fill="#255aa8" stroke="#255aa8" stroke-width="0.5"/>
      <path id="Path_4043" data-name="Path 4043" d="M126.311,211.805a1.657,1.657,0,1,1-1.636-1.606A1.606,1.606,0,0,1,126.311,211.805Zm-1.646.545a.584.584,0,0,0,.615-.565.612.612,0,0,0-.625-.565.6.6,0,0,0-.615.575A.591.591,0,0,0,124.665,212.351Z" transform="translate(8065.024 -2030.932)" fill="#255aa8" stroke="#255aa8" stroke-width="0.5"/>
    </g>
    <g id="Layer_2" data-name="Layer 2" transform="translate(8275.138 -1835.578)">
      <g id="Layer_1" data-name="Layer 1" transform="translate(0 0)">
        <path id="Path_4034" data-name="Path 4034" d="M5.811,7.822c-.11-.018-.22-.033-.329-.054a4.715,4.715,0,0,1-1.211-.43,7.813,7.813,0,0,1-1.751-1.16A8.044,8.044,0,0,1,.152,2.8,2.926,2.926,0,0,1-.027,1.765,1.258,1.258,0,0,1,.335.876C.55.659.757.433.988.233A.747.747,0,0,1,2.1.25c.36.341.708.7,1.048,1.057a.711.711,0,0,1,0,1c-.191.211-.4.408-.6.609a.084.084,0,0,0-.02.116,4.538,4.538,0,0,0,.812,1.12,5.62,5.62,0,0,0,1.076.909c.1.067.218.12.325.183a.071.071,0,0,0,.1-.015c.169-.173.341-.343.512-.514a.881.881,0,0,1,.475-.272.731.731,0,0,1,.661.221q.5.49.991.988a.759.759,0,0,1,.055,1.134c-.226.261-.476.5-.728.739a1.107,1.107,0,0,1-.648.28.325.325,0,0,0-.051.014ZM.371,1.8A3.08,3.08,0,0,0,.594,2.856,7.558,7.558,0,0,0,2.175,5.3,7.723,7.723,0,0,0,4.449,6.988,4.006,4.006,0,0,0,5.8,7.419a.935.935,0,0,0,.79-.215c.226-.217.444-.442.655-.672a.362.362,0,0,0-.009-.556c-.34-.348-.685-.69-1.032-1.031a.343.343,0,0,0-.478-.018,1.122,1.122,0,0,0-.1.093c-.19.189-.378.378-.568.566a.324.324,0,0,1-.411.066c-.111-.056-.223-.113-.329-.177A5.949,5.949,0,0,1,2.983,4.354a4.614,4.614,0,0,1-.83-1.191.359.359,0,0,1,.1-.507c.2-.191.4-.382.584-.582a.343.343,0,0,0,0-.523c-.249-.262-.507-.515-.762-.771C1.975.686,1.882.592,1.783.5A.356.356,0,0,0,1.29.492,1.015,1.015,0,0,0,1.2.573C1.023.748.848.927.669,1.1A.918.918,0,0,0,.371,1.8Z" transform="translate(0.027 0.007)" fill="#255aa8" stroke="#255aa8" stroke-width="0.5"/>
      </g>
    </g>
  </g>
</svg>
