<svg xmlns="http://www.w3.org/2000/svg" width="27.089" height="23.537" viewBox="0 0 27.089 23.537">
  <path id="Transfers-01" d="M42.158,12.288c-.261.848-.537,1.689-.792,2.537q-2.83,9.265-5.654,18.53a.807.807,0,0,1-1.385.452q-3.435-2.555-6.876-5.1c-.071-.049-.141-.1-.233-.17-.049.092-.092.177-.134.261l-2.756,5.47a.869.869,0,0,1-.65.558.782.782,0,0,1-.919-.728c-.007-.085,0-.177,0-.261q0-4.113.007-8.226a.338.338,0,0,0-.254-.382q-3.392-1.293-6.77-2.615c-.445-.17-.65-.431-.643-.806a.83.83,0,0,1,.643-.777q12.626-4.823,25.251-9.64c.558-.212.9-.064,1.194.509A1.9,1.9,0,0,0,42.158,12.288Zm-2.58,2.947a.248.248,0,0,0-.057-.035Q33.829,21.21,28.115,27.235c2.127,1.576,4.233,3.138,6.361,4.721Q37.041,23.56,39.579,15.235Zm-3.908-.049c-.014-.014-.021-.028-.035-.042C29.8,17.369,23.974,19.6,18.1,21.836l.283.127c1.59.615,3.187,1.23,4.777,1.852a.464.464,0,0,0,.5-.064q4.845-3.466,9.71-6.919C34.137,16.281,34.907,15.73,35.67,15.186ZM24.327,30.592c.014.007.035.007.049.014.042-.078.085-.148.12-.226.551-1.088,1.1-2.184,1.654-3.272a1.868,1.868,0,0,1,.29-.41q4.156-4.4,8.325-8.792c.064-.064.113-.134.177-.2a.7.7,0,0,0-.261.127c-1.336.947-2.671,1.9-4,2.848-2.049,1.463-4.106,2.919-6.156,4.389a.439.439,0,0,0-.184.276C24.327,27.1,24.327,28.847,24.327,30.592Z" transform="translate(-15.097 -11.299)" fill="#255aa8"/>
</svg>
