<svg xmlns="http://www.w3.org/2000/svg" width="29.451" height="29.199" viewBox="0 0 29.451 29.199">
  <g id="time-left" transform="translate(-353.9 -355.432)">
    <path id="Path_4064" data-name="Path 4064" d="M353.908,369.343c.071-.57.135-1.141.222-1.7a14.017,14.017,0,0,1,1.6-4.58,14.706,14.706,0,0,1,4.421-4.944,14.268,14.268,0,0,1,5.578-2.385,14.456,14.456,0,0,1,10.76,1.989c.087.056.182.111.269.166a.5.5,0,0,0,.071.016c.269-.4.547-.792.832-1.2a1.489,1.489,0,0,1,.2-.246c.19-.174.372-.15.491.071a1.359,1.359,0,0,1,.1.269c.341,1.212.681,2.432,1.014,3.645.174.626-.079.967-.729,1.022-1.22.1-2.44.214-3.661.325-.032,0-.055.016-.087.008-.174-.048-.436-.04-.507-.159-.063-.1.024-.357.111-.507.262-.428.563-.84.856-1.268a11.819,11.819,0,0,0-2.639-1.339,12.348,12.348,0,0,0-16.235,8.89,11.6,11.6,0,0,0-.182,4.31,12.119,12.119,0,0,0,4.524,8.05,12.271,12.271,0,0,0,5.42,2.5,1.182,1.182,0,1,1-.38,2.329,14.631,14.631,0,0,1-10.38-7.654,14,14,0,0,1-1.632-5.729c-.008-.071-.032-.143-.048-.222C353.908,370.452,353.908,369.9,353.908,369.343Z" transform="translate(0 0)" fill="#255aa8"/>
    <path id="Path_4065" data-name="Path 4065" d="M518.4,426.126v-4.572a.956.956,0,1,1,1.91-.1c.008.1,0,.19,0,.285q0,3.91-.008,7.812a.416.416,0,0,0,.269.436q3.649,1.878,7.289,3.764a.963.963,0,0,1,.618,1.133.947.947,0,0,1-1.22.689,2.612,2.612,0,0,1-.341-.151q-4.124-2.139-8.264-4.263a.407.407,0,0,1-.261-.436C518.409,429.192,518.4,427.655,518.4,426.126Z" transform="translate(-151.459 -59.944)" fill="#255aa8"/>
    <path id="Path_4066" data-name="Path 4066" d="M654.9,630.614v-.032a2.185,2.185,0,0,1,1.68-1.783,1.164,1.164,0,0,1,1.022,1.751,4.75,4.75,0,0,1-.753.935,1.069,1.069,0,0,1-1.252.214A1.148,1.148,0,0,1,654.9,630.614Z" transform="translate(-277.151 -251.707)" fill="#255aa8"/>
    <path id="Path_4067" data-name="Path 4067" d="M558.767,693.136a1.139,1.139,0,0,1-.824,1.117,6.741,6.741,0,0,1-1.038.222,1.176,1.176,0,0,1-.507-2.282,5.431,5.431,0,0,1,1.006-.222A1.163,1.163,0,0,1,558.767,693.136Z" transform="translate(-185.716 -309.864)" fill="#255aa8"/>
    <path id="Path_4068" data-name="Path 4068" d="M687,578.528a8.14,8.14,0,0,1-.539,1.26,1.1,1.1,0,0,1-1.355.364,1.128,1.128,0,0,1-.705-1.268,5.39,5.39,0,0,1,.4-1.157,1.152,1.152,0,0,1,1.339-.578A1.273,1.273,0,0,1,687,578.528Z" transform="translate(-304.295 -204.114)" fill="#255aa8"/>
    <path id="Path_4069" data-name="Path 4069" d="M684.652,465.892a1.09,1.09,0,0,1-.943-.705c-.127-.309-.246-.626-.341-.943a1.167,1.167,0,0,1,2.139-.887,5.291,5.291,0,0,1,.436,1.181A1.174,1.174,0,0,1,684.652,465.892Z" transform="translate(-303.321 -98.831)" fill="#255aa8"/>
    <path id="Path_4070" data-name="Path 4070" d="M697.916,521.212a4.838,4.838,0,0,1-.071.681,1.155,1.155,0,0,1-1.188.879,1.167,1.167,0,0,1-1.109-1.1c-.016-.293-.016-.594-.008-.887a1.174,1.174,0,0,1,1.149-1.188,1.2,1.2,0,0,1,1.212,1.141c.016.158,0,.325,0,.483C697.9,521.212,697.908,521.212,697.916,521.212Z" transform="translate(-314.566 -151.156)" fill="#255aa8"/>
    <path id="Path_4071" data-name="Path 4071" d="M611.568,671.329a1.233,1.233,0,0,1-1.26-.776,1.144,1.144,0,0,1,.38-1.307,6.537,6.537,0,0,1,.951-.586,1.144,1.144,0,0,1,1.339.262,1.131,1.131,0,0,1,.166,1.379A2.811,2.811,0,0,1,611.568,671.329Z" transform="translate(-236.029 -288.303)" fill="#255aa8"/>
  </g>
</svg>
