<svg xmlns="http://www.w3.org/2000/svg" width="49.297" height="38.352" viewBox="0 0 49.297 38.352">
  <g id="mastercard-2" transform="translate(0 0.001)">
    <path id="Path_3926" data-name="Path 3926" d="M149.327,1322.468v.1h.092a.1.1,0,0,0,.049-.013.044.044,0,0,0,.018-.038.042.042,0,0,0-.018-.037.089.089,0,0,0-.049-.012h-.092Zm.093-.07a.17.17,0,0,1,.11.032.106.106,0,0,1,.039.087.1.1,0,0,1-.031.077.151.151,0,0,1-.088.037l.123.141h-.095l-.113-.14h-.037v.14h-.079v-.373h.173Zm-.025.5a.3.3,0,0,0,.121-.025.315.315,0,0,0,.165-.165.313.313,0,0,0-.165-.409.311.311,0,0,0-.121-.023.323.323,0,0,0-.123.023.314.314,0,0,0-.1.067.318.318,0,0,0-.066.345.293.293,0,0,0,.066.1.315.315,0,0,0,.1.067.305.305,0,0,0,.123.025m0-.715a.413.413,0,0,1,.29.118.4.4,0,0,1,.087.44.417.417,0,0,1-.087.128.442.442,0,0,1-.13.086.405.405,0,0,1-.16.032.411.411,0,0,1-.162-.032.422.422,0,0,1-.131-.086.417.417,0,0,1-.086-.132.4.4,0,0,1,.087-.44.388.388,0,0,1,.131-.086.411.411,0,0,1,.162-.032m-37.738-1.436a1.225,1.225,0,1,1,1.227,1.3,1.214,1.214,0,0,1-1.227-1.3m3.275,0v-2.023h-.88v.493a1.533,1.533,0,0,0-1.278-.593,2.127,2.127,0,0,0,0,4.248,1.534,1.534,0,0,0,1.278-.593v.491h.879v-2.024Zm29.72,0a1.225,1.225,0,1,1,1.227,1.3,1.214,1.214,0,0,1-1.227-1.3m3.276,0V1317.1h-.88v2.117a1.533,1.533,0,0,0-1.278-.593,2.127,2.127,0,0,0,0,4.248,1.534,1.534,0,0,0,1.278-.593v.491h.88Zm-22.079-1.337a1,1,0,0,1,1.024.981h-2.1a1.042,1.042,0,0,1,1.075-.981m.017-.789a2.126,2.126,0,0,0,.059,4.248,2.457,2.457,0,0,0,1.658-.567l-.431-.652a1.929,1.929,0,0,1-1.177.423,1.123,1.123,0,0,1-1.21-.991h3c.009-.109.018-.22.018-.338a1.941,1.941,0,0,0-1.921-2.124m10.62,2.124a1.225,1.225,0,1,1,1.227,1.3,1.214,1.214,0,0,1-1.227-1.3m3.275,0v-2.022h-.879v.493a1.534,1.534,0,0,0-1.278-.593,2.127,2.127,0,0,0,0,4.248,1.535,1.535,0,0,0,1.278-.593v.491h.879v-2.024Zm-8.242,0a2.043,2.043,0,0,0,2.158,2.124,2.115,2.115,0,0,0,1.454-.482l-.422-.711a1.778,1.778,0,0,1-1.06.364,1.3,1.3,0,0,1,0-2.59,1.783,1.783,0,0,1,1.06.364l.422-.711a2.117,2.117,0,0,0-1.454-.482,2.043,2.043,0,0,0-2.158,2.124m11.339-2.124a1.194,1.194,0,0,0-1.066.593v-.49h-.872v4.045h.881V1320.5c0-.669.288-1.041.863-1.041a1.428,1.428,0,0,1,.55.1l.271-.829a1.873,1.873,0,0,0-.627-.11m-23.577.423a3.024,3.024,0,0,0-1.65-.423c-1.025,0-1.685.491-1.685,1.295,0,.659.491,1.066,1.4,1.193l.416.059c.482.068.71.195.71.423,0,.313-.32.491-.922.491a2.156,2.156,0,0,1-1.345-.423l-.413.686a2.918,2.918,0,0,0,1.751.525c1.168,0,1.845-.55,1.845-1.32,0-.711-.533-1.083-1.413-1.21l-.415-.06c-.381-.049-.686-.126-.686-.4,0-.3.288-.474.77-.474a2.609,2.609,0,0,1,1.261.347l.381-.711Zm11.349-.422a1.191,1.191,0,0,0-1.065.593v-.492h-.872v4.045h.88V1320.5c0-.669.288-1.041.863-1.041a1.428,1.428,0,0,1,.55.1l.271-.829a1.873,1.873,0,0,0-.627-.11m-7.506.1h-1.438V1317.5H120.8v1.227h-.82v.8h.82v1.845c0,.938.364,1.5,1.4,1.5a2.066,2.066,0,0,0,1.1-.313l-.254-.753a1.629,1.629,0,0,1-.779.229c-.44,0-.583-.271-.583-.677v-1.828h1.438Zm-13.15,4.046v-2.538a1.506,1.506,0,0,0-1.591-1.608,1.566,1.566,0,0,0-1.422.72,1.485,1.485,0,0,0-1.337-.72,1.338,1.338,0,0,0-1.185.6v-.5h-.88v4.045h.887v-2.243a.947.947,0,0,1,.991-1.075c.584,0,.88.381.88,1.066v2.251h.889v-2.243a.954.954,0,0,1,.99-1.075c.6,0,.887.381.887,1.066v2.251Z" transform="translate(-101.008 -1284.64)" fill="#231f20"/>
    <path id="Path_3927" data-name="Path 3927" d="M1930.134,977.811v-.591h-.154l-.178.406-.177-.406h-.155v.591h.109v-.446l.167.385h.114l.167-.385v.447h.108Zm-.977,0v-.49h.2v-.1h-.5v.1h.2v.49h.108Z" transform="translate(-1881.313 -953.137)" fill="#f79410"/>
    <path id="Path_3928" data-name="Path 3928" d="M743.04,156.105H729.71V132.15h13.33Z" transform="translate(-711.726 -128.894)" fill="#ff5f00"/>
    <path id="Path_3929" data-name="Path 3929" d="M18.829,15.234A15.21,15.21,0,0,1,24.647,3.257a15.235,15.235,0,1,0,0,23.955,15.21,15.21,0,0,1-5.819-11.978" transform="translate(0 0)" fill="#eb001b"/>
    <path id="Path_3930" data-name="Path 3930" d="M1024.759,15.234a15.234,15.234,0,0,1-24.649,11.978,15.236,15.236,0,0,0,0-23.955,15.234,15.234,0,0,1,24.649,11.978" transform="translate(-975.462 0)" fill="#f79e1b"/>
  </g>
</svg>
