<svg xmlns="http://www.w3.org/2000/svg" width="302" height="301.961" viewBox="0 0 302 301.961">
  <g id="Group_841" data-name="Group 841" transform="translate(-36 -253.343)">
    <g id="scan_to_pay" data-name="scan to pay" transform="translate(36 253.343)">
      <path id="Path_3314" data-name="Path 3314" d="M313.3,225.843H417.556a5.821,5.821,0,0,1,.624,11.549,30.041,30.041,0,0,1-3.746.156H313.3v100.2a25.283,25.283,0,0,1-.156,3.434,5.668,5.668,0,0,1-5.306,4.994c-2.965.156-5.151-1.093-5.931-4.058a13.918,13.918,0,0,1-.468-4.37v-100.2H225.587a30.041,30.041,0,0,1-3.746-.156,5.821,5.821,0,0,1,.624-11.549,20.845,20.845,0,0,1,3.122,0h75.7V124.24a17.127,17.127,0,0,1,.312-4.058,5.627,5.627,0,0,1,6.087-4.37,5.852,5.852,0,0,1,5.462,5.307,25.233,25.233,0,0,1,0,3.434v97.233A32.687,32.687,0,0,1,313.3,225.843Z" transform="translate(-156.447 -80.54)"/>
      <path id="Path_3315" data-name="Path 3315" d="M248.422,297.1H209.4c-6.087,0-7.8-1.873-7.8-7.96V211.1c0-5.93,1.873-7.8,7.647-7.8H287.6c5.619,0,7.8,2.029,7.8,7.8V289.14c0,5.931-1.873,7.8-7.96,7.8C274.486,297.1,261.376,297.1,248.422,297.1Zm-34.8-12.017h69.608V215.474H213.618Z" transform="translate(-165.079 -31.464)"/>
      <path id="Path_3316" data-name="Path 3316" d="M335.666,297.1H296.647c-5.775,0-7.648-1.873-7.648-7.8V210.948c0-5.775,2.029-7.648,7.8-7.648H374.84c5.931,0,7.96,2.029,7.96,7.96V289.3c0,5.775-1.873,7.8-7.8,7.8Zm-34.648-12.017h69.765V215.474H301.017Z" transform="translate(-116.072 -31.464)"/>
      <path id="Path_3317" data-name="Path 3317" d="M289.056,163.022V124c0-5.775,1.873-7.8,7.647-7.8h78.348c5.619,0,7.648,2.029,7.648,7.491v78.66c0,5.619-2.029,7.492-7.648,7.492h-78.66c-5.462,0-7.491-2.029-7.491-7.335C289.056,189.4,289.056,176.132,289.056,163.022Zm12.017-34.648v69.608h69.765V128.374Z" transform="translate(-116.128 -80.303)"/>
      <path id="Path_3318" data-name="Path 3318" d="M283.538,197.982v-9.208c.156-3.59,2.341-5.931,5.463-6.087a5.658,5.658,0,0,1,6.243,5.618c.156,5.306.156,10.457,0,15.763-.156,3.9-2.653,5.931-7.024,5.931h-79.6c-4.838,0-7.023-2.029-7.023-6.867V123.223c0-4.838,2.185-7.023,6.867-7.023h79.909c4.682,0,6.867,2.185,6.867,7.023v17.948c0,4.37-2.341,7.023-5.931,7.023s-5.931-2.653-5.931-7.023V128.218H213.461v69.608C236.872,197.982,259.971,197.982,283.538,197.982Z" transform="translate(-165.079 -80.303)"/>
      <path id="Path_3319" data-name="Path 3319" d="M238.3,134.656h11.705c4.214.156,6.4,2.185,6.4,6.4V164.31c0,4.214-2.185,6.555-6.4,6.555-7.8.156-15.763.156-23.567,0-4.214,0-6.4-2.341-6.4-6.555-.156-7.8-.156-15.451,0-23.255,0-4.37,2.341-6.4,6.711-6.555C230.5,134.656,234.4,134.656,238.3,134.656Zm-6.4,24.5h12.33V146.674H231.9Z" transform="translate(-154.804 -70.042)"/>
      <path id="Path_3320" data-name="Path 3320" d="M376.884,105.186H348.011c-4.058,0-6.711-2.5-6.711-5.931,0-3.278,2.653-5.931,6.4-5.931,11.549,0,23.1-.156,34.492,0,3.9,0,6.4,2.341,6.4,6.243q.234,18.026,0,36.053a5.7,5.7,0,0,1-6.243,6.087c-3.277-.156-5.619-2.5-5.619-6.243C376.884,125.632,376.884,115.643,376.884,105.186Z" transform="translate(-86.745 -93.169)"/>
      <path id="Path_3321" data-name="Path 3321" d="M190.005,105.218V135.34c0,4.214-2.5,6.555-6.087,6.4-3.434-.156-5.619-2.5-5.619-6.555V99.911c0-4.37,2.185-6.711,6.555-6.711h34.336c3.9,0,6.4,2.5,6.4,5.931,0,3.59-2.5,5.931-6.555,5.931H193.907A30.131,30.131,0,0,1,190.005,105.218Z" transform="translate(-178.144 -93.2)"/>
      <path id="Path_3322" data-name="Path 3322" d="M190.061,292.124h28.405c2.809,0,5.15.78,6.4,3.59a5.768,5.768,0,0,1-5.15,8.272c-12.018.156-23.879.156-35.9,0-3.434,0-5.619-2.5-5.619-5.931V261.533c0-3.59,2.341-5.931,5.619-5.931,3.433-.156,5.931,2.029,6.087,5.775.156,5.931.156,12.018.156,17.948Z" transform="translate(-178.2 -2.141)"/>
      <path id="Path_3323" data-name="Path 3323" d="M376.828,292.135v-31.37a5.81,5.81,0,0,1,5.15-5.15,5.567,5.567,0,0,1,6.243,4.058,12.18,12.18,0,0,1,.468,3.434v33.243c0,5.462-2.185,7.648-7.491,7.648H347.33c-3.589-.312-5.93-2.809-5.93-6.087s2.5-5.775,6.243-5.775c8.428-.156,16.7,0,25.127,0Z" transform="translate(-86.69 -2.152)"/>
      <path id="Path_3324" data-name="Path 3324" d="M266.02,149.933a6.155,6.155,0,0,1-6.555,5.775A5.54,5.54,0,0,1,254,149.777,5.833,5.833,0,0,1,260.4,144,5.577,5.577,0,0,1,266.02,149.933Z" transform="translate(-135.7 -64.718)"/>
      <path id="Path_3325" data-name="Path 3325" d="M207.533,186.2a5.933,5.933,0,1,1,0,11.861,5.831,5.831,0,0,1-5.931-5.931C201.446,188.853,204.1,186.356,207.533,186.2Z" transform="translate(-165.081 -41.053)"/>
      <path id="Path_3326" data-name="Path 3326" d="M256.407,240.247v11.705c0,4.214-2.185,6.4-6.4,6.4-7.8.156-15.763.156-23.567,0-4.214,0-6.4-2.341-6.4-6.555-.156-7.8-.156-15.451,0-23.255,0-4.214,2.185-6.4,6.4-6.4,7.8-.156,15.763-.156,23.567,0,4.214,0,6.243,2.341,6.4,6.555ZM244.233,234H231.9v12.329h12.33Z" transform="translate(-154.804 -20.965)"/>
      <path id="Path_3327" data-name="Path 3327" d="M343.807,240.346v11.705c0,4.058-2.185,6.243-6.243,6.4q-11.939.234-23.879,0c-4.058,0-6.243-2.341-6.243-6.243-.156-7.8-.156-15.763,0-23.567,0-4.058,2.185-6.243,6.243-6.4q11.939-.234,23.879,0c4.058,0,6.243,2.341,6.243,6.711Zm-24.5,5.931h12.33v-12.33H319.3Z" transform="translate(-105.796 -20.908)"/>
      <path id="Path_3328" data-name="Path 3328" d="M325.66,134.656h11.706c4.214.156,6.4,2.341,6.4,6.4V164.31c0,4.214-2.185,6.4-6.4,6.555-7.8.156-15.764.156-23.567,0-4.214,0-6.4-2.341-6.4-6.555V141.055c0-4.214,2.185-6.4,6.4-6.555C317.7,134.656,321.759,134.656,325.66,134.656Zm-6.243,12.018v12.486h12.33V146.674Z" transform="translate(-105.754 -70.042)"/>
    </g>
  </g>
</svg>
