<svg id="scan_to_pay" data-name="scan to pay" xmlns="http://www.w3.org/2000/svg" width="37.175" height="37.171" viewBox="0 0 37.175 37.171">
  <path id="Path_3314" data-name="Path 3314" d="M228.85,129.327h12.834a.717.717,0,0,1,.077,1.422,3.7,3.7,0,0,1-.461.019H228.85V143.1a3.113,3.113,0,0,1-.019.423.7.7,0,0,1-.653.615.644.644,0,0,1-.73-.5,1.713,1.713,0,0,1-.058-.538V130.768h-9.337a3.7,3.7,0,0,1-.461-.019.717.717,0,0,1,.077-1.422,2.565,2.565,0,0,1,.384,0h9.318V116.82a2.108,2.108,0,0,1,.038-.5.693.693,0,0,1,.749-.538.72.72,0,0,1,.672.653,3.106,3.106,0,0,1,0,.423v11.969A4.023,4.023,0,0,1,228.85,129.327Z" transform="translate(-209.541 -111.441)" fill="#fff"/>
  <path id="Path_3315" data-name="Path 3315" d="M207.364,214.846h-4.8c-.749,0-.961-.231-.961-.98v-9.606c0-.73.231-.961.941-.961h9.644c.692,0,.961.25.961.961v9.606c0,.73-.231.961-.98.961C210.572,214.846,208.958,214.846,207.364,214.846Zm-4.284-1.479h8.569V204.8h-8.569Z" transform="translate(-197.104 -182.147)" fill="#fff"/>
  <path id="Path_3316" data-name="Path 3316" d="M294.744,214.846h-4.8c-.711,0-.941-.231-.941-.961v-9.644c0-.711.25-.941.961-.941h9.606c.73,0,.98.25.98.98v9.606c0,.711-.231.961-.961.961Zm-4.265-1.479h8.588V204.8h-8.588Z" transform="translate(-267.713 -182.147)" fill="#fff"/>
  <path id="Path_3317" data-name="Path 3317" d="M288.919,121.964v-4.8c0-.711.231-.961.941-.961h9.644c.692,0,.941.25.941.922v9.683c0,.692-.25.922-.941.922h-9.683c-.672,0-.922-.25-.922-.9C288.919,125.21,288.919,123.577,288.919,121.964ZM290.4,117.7v8.569h8.588V117.7Z" transform="translate(-267.632 -111.781)" fill="#fff"/>
  <path id="Path_3318" data-name="Path 3318" d="M211.686,126.267v-1.133a.713.713,0,0,1,.672-.749.7.7,0,0,1,.768.692c.019.653.019,1.287,0,1.94-.019.48-.327.73-.865.73h-9.8c-.6,0-.865-.25-.865-.845v-9.837c0-.6.269-.865.845-.865h9.837c.576,0,.845.269.845.865v2.209c0,.538-.288.865-.73.865s-.73-.327-.73-.865v-1.595H203.06v8.569C205.942,126.267,208.785,126.267,211.686,126.267Z" transform="translate(-197.104 -111.781)" fill="#fff"/>
  <path id="Path_3319" data-name="Path 3319" d="M222.187,134.519h1.441a.709.709,0,0,1,.788.788v2.863a.715.715,0,0,1-.788.807c-.961.019-1.94.019-2.9,0a.715.715,0,0,1-.788-.807c-.019-.961-.019-1.9,0-2.863,0-.538.288-.788.826-.807C221.227,134.519,221.707,134.519,222.187,134.519Zm-.788,3.016h1.518V136H221.4Z" transform="translate(-211.909 -126.565)" fill="#fff"/>
  <path id="Path_3320" data-name="Path 3320" d="M345.68,94.724h-3.554a.734.734,0,1,1-.038-1.46c1.422,0,2.843-.019,4.246,0a.722.722,0,0,1,.788.768q.029,2.219,0,4.438a.7.7,0,0,1-.768.749.709.709,0,0,1-.692-.768C345.68,97.241,345.68,96.011,345.68,94.724Z" transform="translate(-309.965 -93.245)" fill="#fff"/>
  <path id="Path_3321" data-name="Path 3321" d="M179.741,94.679v3.708a.7.7,0,0,1-.749.788.711.711,0,0,1-.692-.807V94.026a.727.727,0,0,1,.807-.826h4.227a.733.733,0,1,1-.019,1.46h-3.093A3.709,3.709,0,0,1,179.741,94.679Z" transform="translate(-178.281 -93.2)" fill="#fff"/>
  <path id="Path_3322" data-name="Path 3322" d="M179.66,260.092h3.5a.761.761,0,0,1,.788.442.71.71,0,0,1-.634,1.018c-1.479.019-2.939.019-4.419,0a.676.676,0,0,1-.692-.73v-4.5a.676.676,0,0,1,.692-.73.685.685,0,0,1,.749.711c.019.73.019,1.479.019,2.209Z" transform="translate(-178.2 -224.395)" fill="#fff"/>
  <path id="Path_3323" data-name="Path 3323" d="M345.761,260.075v-3.862a.715.715,0,0,1,.634-.634.685.685,0,0,1,.768.5,1.5,1.5,0,0,1,.058.423v4.092c0,.672-.269.941-.922.941H342.13a.745.745,0,0,1-.73-.749.713.713,0,0,1,.768-.711c1.037-.019,2.056,0,3.093,0Z" transform="translate(-310.046 -224.379)" fill="#fff"/>
  <path id="Path_3324" data-name="Path 3324" d="M255.476,144.726a.758.758,0,0,1-.807.711.682.682,0,0,1-.672-.73.718.718,0,0,1,.788-.711A.687.687,0,0,1,255.476,144.726Z" transform="translate(-239.433 -134.237)" fill="#fff"/>
  <path id="Path_3325" data-name="Path 3325" d="M202.327,186.2a.73.73,0,1,1,0,1.46.73.73,0,0,1,0-1.46Z" transform="translate(-197.101 -168.333)" fill="#fff"/>
  <path id="Path_3326" data-name="Path 3326" d="M224.416,224.268v1.441a.7.7,0,0,1-.788.788c-.961.019-1.94.019-2.9,0a.715.715,0,0,1-.788-.807c-.019-.961-.019-1.9,0-2.863a.7.7,0,0,1,.788-.788c.961-.019,1.94-.019,2.9,0,.519,0,.768.288.788.807Zm-1.5-.768H221.4v1.518h1.518Z" transform="translate(-211.909 -197.275)" fill="#fff"/>
  <path id="Path_3327" data-name="Path 3327" d="M311.816,224.368v1.441a.712.712,0,0,1-.768.788q-1.47.029-2.939,0a.7.7,0,0,1-.768-.768c-.019-.961-.019-1.94,0-2.9a.712.712,0,0,1,.768-.788q1.47-.029,2.939,0c.5,0,.768.288.768.826Zm-3.016.73h1.518V223.58H308.8Z" transform="translate(-282.517 -197.356)" fill="#fff"/>
  <path id="Path_3328" data-name="Path 3328" d="M309.648,134.519h1.441a.718.718,0,0,1,.788.788v2.863a.724.724,0,0,1-.788.807c-.961.019-1.94.019-2.9,0a.715.715,0,0,1-.788-.807v-2.863a.724.724,0,0,1,.788-.807C308.668,134.519,309.168,134.519,309.648,134.519ZM308.879,136v1.537H310.4V136Z" transform="translate(-282.578 -126.565)" fill="#fff"/>
</svg>
